<svg width="233" height="233" viewBox="0 0 233 233" fill="none" xmlns="http://www.w3.org/2000/svg">
<g opacity="0.5" filter="url(#filter0_i_7_893)">
<path d="M233 116.5C233 180.841 180.841 233 116.5 233C52.1588 233 0 180.841 0 116.5C0 92.7251 7.12178 70.6135 19.3484 52.1823C23.863 45.3767 29.0735 39.0729 34.8786 33.3724C55.8984 12.731 84.7125 0 116.5 0C180.841 0 233 52.1588 233 116.5Z" fill="#DDF6FF"></path>
</g>
<g opacity="0.9" filter="url(#filter1_i_7_893)">
<path d="M212.5 116C212.5 169.019 169.519 212 116.5 212C63.4807 212 20.5 169.019 20.5 116C20.5 96.4086 26.3686 78.188 36.4437 63C40.1639 57.392 44.4576 52.1974 49.2411 47.5C66.5622 30.4908 90.306 20 116.5 20C169.519 20 212.5 62.9807 212.5 116Z" fill="#DDF6FF"></path>
</g>
<g filter="url(#filter2_d_7_893)">
<rect x="46" y="45" width="142" height="142" rx="71" fill="white" shape-rendering="crispEdges"></rect>
<path d="M91.7812 103.812C90.0833 103.812 88.5573 103.536 87.2031 102.984C85.8594 102.432 84.8073 101.672 84.0469 100.703C83.2865 99.724 82.9062 98.625 82.9062 97.4062C82.9062 96.4792 83.125 95.6146 83.5625 94.8125C84 94.0104 84.599 93.349 85.3594 92.8281C86.1302 92.2969 86.9792 91.9583 87.9062 91.8125V91.6562C87.1042 91.5 86.3906 91.1875 85.7656 90.7188C85.1406 90.2396 84.651 89.6458 84.2969 88.9375C83.9531 88.2292 83.7812 87.4688 83.7812 86.6562C83.7812 85.4896 84.125 84.4479 84.8125 83.5312C85.5 82.6042 86.4531 81.8802 87.6719 81.3594C88.8906 80.8281 90.2604 80.5625 91.7812 80.5625C93.3021 80.5625 94.6719 80.8281 95.8906 81.3594C97.1094 81.8802 98.0625 82.6042 98.75 83.5312C99.4479 84.4479 99.8021 85.4896 99.8125 86.6562C99.8021 87.4792 99.6198 88.2448 99.2656 88.9531C98.9115 89.651 98.4219 90.2396 97.7969 90.7188C97.1719 91.1875 96.4688 91.5 95.6875 91.6562V91.8125C96.6042 91.9583 97.4375 92.2969 98.1875 92.8281C98.9479 93.349 99.5469 94.0104 99.9844 94.8125C100.432 95.6146 100.656 96.4792 100.656 97.4062C100.656 98.625 100.276 99.724 99.5156 100.703C98.7552 101.672 97.6979 102.432 96.3438 102.984C95 103.536 93.4792 103.812 91.7812 103.812ZM91.7812 100.219C92.5625 100.219 93.25 100.083 93.8438 99.8125C94.4479 99.5312 94.9167 99.1406 95.25 98.6406C95.5833 98.1406 95.75 97.5729 95.75 96.9375C95.75 96.2917 95.5781 95.7083 95.2344 95.1875C94.901 94.6667 94.4323 94.2604 93.8281 93.9688C93.224 93.6771 92.5417 93.5312 91.7812 93.5312C91.0208 93.5312 90.3333 93.6771 89.7188 93.9688C89.1146 94.2604 88.6406 94.6667 88.2969 95.1875C87.9635 95.7083 87.8021 96.2917 87.8125 96.9375C87.8021 97.5729 87.9583 98.1406 88.2812 98.6406C88.6146 99.1406 89.0833 99.5312 89.6875 99.8125C90.2917 100.083 90.9896 100.219 91.7812 100.219ZM91.7812 90.2188C92.4375 90.2188 93.026 90.0885 93.5469 89.8281C94.0781 89.5573 94.4896 89.1875 94.7812 88.7188C95.0729 88.25 95.2188 87.7188 95.2188 87.125C95.2188 86.5521 95.0729 86.0365 94.7812 85.5781C94.4896 85.1198 94.0833 84.7656 93.5625 84.5156C93.0417 84.2552 92.4479 84.125 91.7812 84.125C91.1146 84.125 90.5208 84.25 90 84.5C89.4896 84.75 89.0885 85.1042 88.7969 85.5625C88.5156 86.0208 88.375 86.5417 88.375 87.125C88.375 87.7188 88.5208 88.25 88.8125 88.7188C89.1042 89.1875 89.5052 89.5573 90.0156 89.8281C90.5365 90.0885 91.125 90.2188 91.7812 90.2188ZM102.54 95.7812L112.103 80.875H118.009V95.7188H120.884V99.5H118.009V103.5H113.54V99.5H102.54V95.7812ZM113.603 95.7188V86.0312H113.384L107.29 95.5312V95.7188H113.603ZM128.924 92.1875C127.82 92.1875 126.877 91.9375 126.096 91.4375C125.314 90.9271 124.721 90.2188 124.314 89.3125C123.908 88.4062 123.705 87.3542 123.705 86.1562C123.705 84.9583 123.908 83.901 124.314 82.9844C124.731 82.0677 125.33 81.3594 126.111 80.8594C126.903 80.349 127.84 80.0938 128.924 80.0938C130.038 80.0938 130.981 80.349 131.752 80.8594C132.533 81.3594 133.122 82.0677 133.518 82.9844C133.924 83.8906 134.132 84.9479 134.143 86.1562C134.132 87.3646 133.924 88.4219 133.518 89.3281C133.111 90.2344 132.518 90.9375 131.736 91.4375C130.955 91.9375 130.018 92.1875 128.924 92.1875ZM128.924 89.4062C129.58 89.4062 130.075 89.1146 130.408 88.5312C130.752 87.9479 130.934 87.1562 130.955 86.1562C130.934 85.1354 130.757 84.3333 130.424 83.75C130.101 83.1667 129.601 82.875 128.924 82.875C128.268 82.875 127.762 83.1771 127.408 83.7812C127.064 84.375 126.893 85.1667 126.893 86.1562C126.893 87.1458 127.07 87.9375 127.424 88.5312C127.778 89.1146 128.278 89.4062 128.924 89.4062ZM144.174 104.25C143.08 104.25 142.143 104 141.361 103.5C140.58 102.99 139.986 102.281 139.58 101.375C139.184 100.469 138.986 99.4167 138.986 98.2188C138.986 97.0208 139.189 95.9635 139.596 95.0469C140.012 94.1302 140.611 93.4219 141.393 92.9219C142.174 92.4115 143.101 92.1562 144.174 92.1562C145.288 92.1562 146.236 92.4115 147.018 92.9219C147.799 93.4219 148.393 94.1302 148.799 95.0469C149.205 95.9531 149.413 97.0104 149.424 98.2188C149.413 99.4271 149.205 100.484 148.799 101.391C148.393 102.297 147.794 103 147.002 103.5C146.221 104 145.278 104.25 144.174 104.25ZM144.174 101.469C144.84 101.469 145.346 101.182 145.689 100.609C146.033 100.036 146.215 99.2396 146.236 98.2188C146.215 97.1979 146.038 96.401 145.705 95.8281C145.372 95.2448 144.861 94.9583 144.174 94.9688C143.538 94.9688 143.044 95.2656 142.689 95.8594C142.346 96.4531 142.174 97.2396 142.174 98.2188C142.174 99.2188 142.346 100.01 142.689 100.594C143.044 101.177 143.538 101.469 144.174 101.469ZM142.518 80.875H146.018L130.455 103.5H126.955L142.518 80.875Z" fill="#222222"></path>
<path d="M90.375 117.688H85.4062V121.344H85.9062C87.1458 121.344 88.1979 121.31 89.0625 121.242C89.9323 121.174 90.8021 121.052 91.6719 120.875L91.8281 121.859C90.9479 122.047 90.0677 122.174 89.1875 122.242C88.3125 122.31 87.2188 122.344 85.9062 122.344H85.2812H84.2031V116.688H90.375V117.688ZM94.4219 118.828H96.5156V119.844H94.4219V122.891H93.2031V115.875H94.4219V118.828ZM94.4219 127H86.7969V128.578H94.9375V129.578H85.5938V126.031H93.2031V124.578H85.5625V123.578H94.4219V127ZM101.692 118.062C101.687 118.714 101.827 119.336 102.114 119.93C102.4 120.518 102.804 121.034 103.325 121.477C103.851 121.919 104.452 122.255 105.129 122.484L104.442 123.438C103.671 123.146 102.997 122.727 102.418 122.18C101.84 121.633 101.403 120.995 101.106 120.266C100.809 121.099 100.353 121.828 99.7388 122.453C99.1242 123.073 98.4002 123.542 97.5669 123.859L96.895 122.859C97.6033 122.609 98.2257 122.25 98.7622 121.781C99.3039 121.307 99.7231 120.755 100.02 120.125C100.317 119.49 100.468 118.818 100.473 118.109V116.672H101.692V118.062ZM108.426 124.109H107.192V119.875H104.098V118.859H107.192V115.875H108.426V124.109ZM103.817 124.516C104.78 124.516 105.611 124.62 106.309 124.828C107.007 125.031 107.541 125.331 107.911 125.727C108.286 126.117 108.473 126.589 108.473 127.141C108.473 127.688 108.286 128.154 107.911 128.539C107.541 128.93 107.007 129.227 106.309 129.43C105.611 129.633 104.78 129.734 103.817 129.734C102.853 129.734 102.023 129.633 101.325 129.43C100.627 129.227 100.09 128.93 99.7153 128.539C99.3455 128.154 99.1606 127.688 99.1606 127.141C99.1606 126.589 99.3455 126.117 99.7153 125.727C100.09 125.331 100.627 125.031 101.325 124.828C102.023 124.62 102.853 124.516 103.817 124.516ZM103.817 125.484C103.114 125.484 102.502 125.552 101.981 125.688C101.46 125.818 101.062 126.008 100.786 126.258C100.51 126.508 100.374 126.802 100.379 127.141C100.374 127.469 100.51 127.755 100.786 128C101.062 128.24 101.46 128.424 101.981 128.555C102.502 128.685 103.114 128.75 103.817 128.75C104.52 128.75 105.129 128.685 105.645 128.555C106.166 128.424 106.564 128.24 106.84 128C107.116 127.755 107.254 127.469 107.254 127.141C107.254 126.802 107.116 126.508 106.84 126.258C106.564 126.008 106.166 125.818 105.645 125.688C105.129 125.552 104.52 125.484 103.817 125.484ZM122.056 124.5H120.884V120.734H119.071V124.281H117.899V116.109H119.071V119.719H120.884V115.891H122.056V124.5ZM117.306 118.484H110.181V117.469H113.149V115.938H114.368V117.469H117.306V118.484ZM113.759 119.188C114.342 119.188 114.858 119.286 115.306 119.484C115.759 119.677 116.11 119.953 116.36 120.312C116.61 120.667 116.738 121.083 116.743 121.562C116.738 122.031 116.61 122.445 116.36 122.805C116.11 123.164 115.759 123.443 115.306 123.641C114.858 123.839 114.342 123.938 113.759 123.938C113.181 123.938 112.665 123.839 112.212 123.641C111.759 123.443 111.407 123.164 111.157 122.805C110.907 122.445 110.785 122.031 110.79 121.562C110.785 121.089 110.907 120.672 111.157 120.312C111.407 119.953 111.756 119.677 112.204 119.484C112.657 119.286 113.175 119.188 113.759 119.188ZM113.759 120.109C113.389 120.109 113.061 120.169 112.774 120.289C112.493 120.409 112.274 120.578 112.118 120.797C111.962 121.016 111.884 121.271 111.884 121.562C111.884 121.849 111.962 122.104 112.118 122.328C112.28 122.547 112.501 122.716 112.782 122.836C113.069 122.956 113.394 123.016 113.759 123.016C114.123 123.016 114.446 122.956 114.728 122.836C115.014 122.716 115.235 122.547 115.392 122.328C115.553 122.104 115.634 121.849 115.634 121.562C115.634 121.271 115.556 121.016 115.399 120.797C115.243 120.578 115.022 120.409 114.735 120.289C114.454 120.169 114.129 120.109 113.759 120.109ZM115.181 125.391C115.17 126.005 115.332 126.596 115.665 127.164C116.004 127.727 116.491 128.18 117.126 128.523C117.548 128.279 117.907 127.977 118.204 127.617C118.506 127.258 118.735 126.885 118.892 126.5C119.048 126.109 119.129 125.74 119.134 125.391V124.891H120.337V125.391C120.332 125.844 120.441 126.289 120.665 126.727C120.894 127.164 121.222 127.555 121.649 127.898C122.082 128.237 122.587 128.495 123.165 128.672L122.587 129.609C121.905 129.37 121.319 129.026 120.829 128.578C120.339 128.135 119.97 127.625 119.72 127.047C119.496 127.635 119.165 128.167 118.728 128.641C118.295 129.115 117.769 129.474 117.149 129.719C116.504 129.479 115.962 129.13 115.524 128.672C115.092 128.219 114.767 127.698 114.548 127.109C114.287 127.667 113.915 128.164 113.431 128.602C112.951 129.039 112.389 129.375 111.743 129.609L111.149 128.672C111.712 128.479 112.207 128.206 112.634 127.852C113.066 127.497 113.397 127.104 113.626 126.672C113.86 126.24 113.978 125.812 113.978 125.391V124.891H115.181V125.391ZM127.341 116.953C127.966 116.958 128.526 117.133 129.021 117.477C129.521 117.82 129.925 118.31 130.232 118.945C130.539 119.581 130.724 120.328 130.787 121.188H133.904V115.875H135.123V129.797H133.904V122.203H130.802C130.755 123.099 130.581 123.88 130.279 124.547C129.977 125.214 129.57 125.727 129.06 126.086C128.555 126.445 127.982 126.625 127.341 126.625C126.664 126.625 126.06 126.427 125.529 126.031C125.003 125.635 124.591 125.073 124.294 124.344C124.003 123.615 123.857 122.766 123.857 121.797C123.857 120.828 124.003 119.979 124.294 119.25C124.591 118.521 125.003 117.958 125.529 117.562C126.055 117.161 126.659 116.958 127.341 116.953ZM127.341 118.047C126.888 118.052 126.484 118.211 126.13 118.523C125.781 118.831 125.511 119.268 125.318 119.836C125.125 120.398 125.029 121.052 125.029 121.797C125.029 122.542 125.125 123.198 125.318 123.766C125.511 124.328 125.781 124.763 126.13 125.07C126.484 125.378 126.888 125.531 127.341 125.531C127.789 125.531 128.188 125.378 128.537 125.07C128.891 124.763 129.164 124.328 129.357 123.766C129.555 123.198 129.654 122.542 129.654 121.797C129.654 121.052 129.555 120.398 129.357 119.836C129.164 119.268 128.893 118.831 128.544 118.523C128.195 118.211 127.794 118.052 127.341 118.047ZM149.674 127.984H136.955V126.953H140.111V123.203C139.507 122.891 139.038 122.49 138.705 122C138.372 121.505 138.205 120.948 138.205 120.328C138.205 119.62 138.421 118.997 138.853 118.461C139.286 117.919 139.885 117.5 140.65 117.203C141.421 116.906 142.299 116.755 143.283 116.75C144.268 116.755 145.143 116.906 145.908 117.203C146.679 117.5 147.281 117.919 147.713 118.461C148.145 118.997 148.361 119.62 148.361 120.328C148.361 120.938 148.2 121.487 147.877 121.977C147.554 122.461 147.101 122.859 146.518 123.172V126.953H149.674V127.984ZM143.283 117.766C142.528 117.76 141.856 117.865 141.268 118.078C140.679 118.292 140.218 118.594 139.885 118.984C139.557 119.37 139.393 119.818 139.393 120.328C139.393 120.839 139.557 121.292 139.885 121.688C140.218 122.078 140.679 122.383 141.268 122.602C141.856 122.815 142.528 122.922 143.283 122.922C144.033 122.922 144.702 122.812 145.291 122.594C145.879 122.375 146.34 122.07 146.674 121.68C147.007 121.289 147.174 120.839 147.174 120.328C147.174 119.818 147.007 119.37 146.674 118.984C146.34 118.594 145.879 118.292 145.291 118.078C144.702 117.865 144.033 117.76 143.283 117.766ZM145.283 126.953V123.648C144.663 123.81 143.997 123.891 143.283 123.891C142.564 123.891 141.908 123.812 141.314 123.656V126.953H145.283Z" fill="#868F89"></path>
<path d="M94.6221 144.61C95.0011 143.915 95.9989 143.915 96.3779 144.61L97.4534 146.582C97.5972 146.846 97.852 147.031 98.1473 147.086L100.355 147.499C101.133 147.645 101.442 148.594 100.898 149.169L99.3545 150.802C99.1482 151.02 99.0508 151.319 99.0895 151.617L99.3785 153.845C99.4804 154.63 98.6731 155.216 97.958 154.877L95.9288 153.914C95.6575 153.785 95.3425 153.785 95.0712 153.914L93.042 154.877C92.3269 155.216 91.5196 154.63 91.6215 153.845L91.9105 151.617C91.9492 151.319 91.8518 151.02 91.6455 150.802L90.1023 149.169C89.5585 148.594 89.8669 147.645 90.6449 147.499L92.8527 147.086C93.148 147.031 93.4028 146.846 93.5466 146.582L94.6221 144.61Z" fill="#78DBFF"></path>
<path d="M105.285 153.727L108.18 150.68C108.562 150.277 108.854 149.953 109.053 149.707C109.256 149.457 109.408 149.217 109.51 148.986C109.615 148.752 109.668 148.508 109.668 148.254C109.668 147.973 109.594 147.723 109.445 147.504C109.297 147.285 109.094 147.115 108.836 146.994C108.582 146.873 108.297 146.812 107.98 146.812C107.648 146.812 107.357 146.879 107.107 147.012C106.857 147.145 106.664 147.332 106.527 147.574C106.395 147.816 106.328 148.094 106.328 148.406H105.332C105.328 147.914 105.441 147.479 105.672 147.1C105.906 146.721 106.229 146.426 106.639 146.215C107.049 146.004 107.508 145.898 108.016 145.898C108.52 145.898 108.971 146.002 109.369 146.209C109.771 146.416 110.086 146.699 110.312 147.059C110.539 147.418 110.652 147.816 110.652 148.254C110.652 148.578 110.594 148.889 110.477 149.186C110.359 149.479 110.162 149.805 109.885 150.164C109.611 150.52 109.219 150.961 108.707 151.488L106.762 153.492V153.562H110.805V154.5H105.297L105.285 153.727ZM112.273 155.777H111.359L114.089 145.617H115.015L112.273 155.777ZM118.557 154.617C117.999 154.617 117.499 154.523 117.057 154.336C116.62 154.148 116.272 153.885 116.014 153.545C115.76 153.205 115.624 152.812 115.604 152.367H116.671C116.69 152.629 116.784 152.859 116.952 153.059C117.124 153.258 117.348 153.412 117.626 153.521C117.903 153.627 118.21 153.68 118.546 153.68C118.913 153.68 119.243 153.617 119.536 153.492C119.833 153.363 120.063 153.188 120.227 152.965C120.395 152.738 120.479 152.48 120.479 152.191C120.479 151.879 120.397 151.604 120.233 151.365C120.073 151.127 119.839 150.941 119.53 150.809C119.221 150.676 118.85 150.609 118.417 150.609H117.725V149.684H118.417C118.757 149.684 119.059 149.623 119.325 149.502C119.591 149.381 119.796 149.211 119.94 148.992C120.089 148.773 120.163 148.52 120.163 148.23C120.163 147.953 120.096 147.707 119.964 147.492C119.835 147.277 119.651 147.111 119.413 146.994C119.175 146.873 118.897 146.812 118.581 146.812C118.276 146.812 117.991 146.867 117.725 146.977C117.46 147.086 117.243 147.242 117.075 147.445C116.907 147.645 116.815 147.879 116.8 148.148H115.78C115.8 147.711 115.936 147.322 116.19 146.982C116.444 146.639 116.782 146.373 117.204 146.186C117.626 145.994 118.089 145.898 118.592 145.898C119.116 145.898 119.573 146.002 119.964 146.209C120.358 146.412 120.661 146.688 120.872 147.035C121.083 147.383 121.186 147.762 121.182 148.172C121.186 148.648 121.059 149.057 120.801 149.396C120.544 149.736 120.19 149.969 119.741 150.094V150.152C120.104 150.211 120.419 150.334 120.684 150.521C120.954 150.705 121.159 150.941 121.3 151.23C121.444 151.516 121.514 151.836 121.51 152.191C121.514 152.648 121.387 153.062 121.13 153.434C120.872 153.801 120.516 154.09 120.063 154.301C119.614 154.512 119.112 154.617 118.557 154.617ZM128.126 145.523C128.63 145.523 129.078 145.609 129.468 145.781C129.863 145.953 130.169 146.195 130.388 146.508C130.607 146.816 130.716 147.176 130.716 147.586C130.716 147.938 130.628 148.256 130.453 148.541C130.281 148.826 130.035 149.061 129.714 149.244C129.398 149.428 129.033 149.545 128.619 149.596V150.615C129.677 150.564 130.634 150.473 131.49 150.34L131.56 151.031C130.583 151.207 129.564 151.322 128.501 151.377C127.443 151.428 126.294 151.453 125.056 151.453L124.939 150.691H125.478C126.169 150.691 126.908 150.68 127.693 150.656V149.602C127.267 149.555 126.89 149.441 126.562 149.262C126.238 149.078 125.986 148.844 125.806 148.559C125.63 148.27 125.544 147.945 125.548 147.586C125.544 147.18 125.65 146.82 125.865 146.508C126.083 146.195 126.388 145.953 126.779 145.781C127.173 145.609 127.622 145.523 128.126 145.523ZM128.126 146.238C127.794 146.238 127.497 146.295 127.236 146.408C126.974 146.521 126.771 146.68 126.626 146.883C126.482 147.086 126.412 147.32 126.415 147.586C126.412 147.844 126.482 148.074 126.626 148.277C126.771 148.477 126.974 148.633 127.236 148.746C127.497 148.859 127.794 148.918 128.126 148.922C128.462 148.918 128.759 148.859 129.017 148.746C129.279 148.633 129.482 148.477 129.626 148.277C129.771 148.074 129.845 147.844 129.849 147.586C129.845 147.32 129.771 147.086 129.626 146.883C129.482 146.676 129.279 146.518 129.017 146.408C128.759 146.295 128.462 146.238 128.126 146.238ZM133.083 148.57H134.642V149.355H133.083V153.012H132.158V145.043H133.083V148.57ZM133.458 155.215H126.462V152.32H127.388V154.441H133.458V155.215ZM144.501 154.16H134.962V153.387H137.645V151.406H136.157V148.195H142.391V146.566H136.134V145.805H143.294V148.957H137.071V150.645H143.54V151.406H141.911V153.387H144.501V154.16ZM141.009 153.387V151.406H138.548V153.387H141.009Z" fill="#56D2FF"></path>
</g>
<g clip-path="url(#paint0_angular_7_893_clip_path)" data-figma-skip-parse="true"><g transform="matrix(-0.0064 -0.096 0.096 -0.0064 116.5 116)"></g></g><path d="M15.5 116C15.5 95.3955 21.6755 76.2183 32.2773 60.2363C33.8038 57.9352 36.9069 57.3065 39.208 58.833C41.5091 60.3595 42.1367 63.4626 40.6104 65.7637C31.0619 80.1576 25.5 97.4218 25.5 116C25.5 166.258 66.2421 207 116.5 207C166.758 207 207.5 166.258 207.5 116C207.5 65.7421 166.758 25 116.5 25C113.739 25 111.5 22.7614 111.5 20C111.5 17.2386 113.739 15 116.5 15C172.281 15 217.5 60.2192 217.5 116C217.5 171.781 172.281 217 116.5 217C60.7192 217 15.5 171.781 15.5 116Z" data-figma-gradient-fill="{&#34;type&#34;:&#34;GRADIENT_ANGULAR&#34;,&#34;stops&#34;:[{&#34;color&#34;:{&#34;r&#34;:0.60352313518524170,&#34;g&#34;:0.89427280426025391,&#34;b&#34;:1.0,&#34;a&#34;:1.0},&#34;position&#34;:0.0},{&#34;color&#34;:{&#34;r&#34;:0.0,&#34;g&#34;:0.73333340883255005,&#34;b&#34;:1.0,&#34;a&#34;:1.0},&#34;position&#34;:1.0}],&#34;stopsVar&#34;:[{&#34;color&#34;:{&#34;r&#34;:0.60352313518524170,&#34;g&#34;:0.89427280426025391,&#34;b&#34;:1.0,&#34;a&#34;:1.0},&#34;position&#34;:0.0},{&#34;color&#34;:{&#34;r&#34;:0.0,&#34;g&#34;:0.73333340883255005,&#34;b&#34;:1.0,&#34;a&#34;:1.0},&#34;position&#34;:1.0}],&#34;transform&#34;:{&#34;m00&#34;:-12.799995422363281,&#34;m01&#34;:192.00001525878906,&#34;m02&#34;:26.899988174438477,&#34;m10&#34;:-192.00001525878906,&#34;m11&#34;:-12.799995422363281,&#34;m12&#34;:218.40002441406250},&#34;opacity&#34;:1.0,&#34;blendMode&#34;:&#34;NORMAL&#34;,&#34;visible&#34;:true}"></path>
<defs>
<filter id="filter0_i_7_893" x="0" y="0" width="233" height="233" filterUnits="userSpaceOnUse" color-interpolation-filters="sRGB">
<feFlood flood-opacity="0" result="BackgroundImageFix"></feFlood>
<feBlend mode="normal" in="SourceGraphic" in2="BackgroundImageFix" result="shape"></feBlend>
<feColorMatrix in="SourceAlpha" type="matrix" values="0 0 0 0 0 0 0 0 0 0 0 0 0 0 0 0 0 0 127 0" result="hardAlpha"></feColorMatrix>
<feOffset></feOffset>
<feGaussianBlur stdDeviation="7.75"></feGaussianBlur>
<feComposite in2="hardAlpha" operator="arithmetic" k2="-1" k3="1"></feComposite>
<feColorMatrix type="matrix" values="0 0 0 0 0.471364 0 0 0 0 0.85903 0 0 0 0 1 0 0 0 1 0"></feColorMatrix>
<feBlend mode="normal" in2="shape" result="effect1_innerShadow_7_893"></feBlend>
</filter>
<filter id="filter1_i_7_893" x="20.5" y="20" width="192" height="192" filterUnits="userSpaceOnUse" color-interpolation-filters="sRGB">
<feFlood flood-opacity="0" result="BackgroundImageFix"></feFlood>
<feBlend mode="normal" in="SourceGraphic" in2="BackgroundImageFix" result="shape"></feBlend>
<feColorMatrix in="SourceAlpha" type="matrix" values="0 0 0 0 0 0 0 0 0 0 0 0 0 0 0 0 0 0 127 0" result="hardAlpha"></feColorMatrix>
<feOffset></feOffset>
<feGaussianBlur stdDeviation="14.9"></feGaussianBlur>
<feComposite in2="hardAlpha" operator="arithmetic" k2="-1" k3="1"></feComposite>
<feColorMatrix type="matrix" values="0 0 0 0 0.471364 0 0 0 0 0.85903 0 0 0 0 1 0 0 0 1 0"></feColorMatrix>
<feBlend mode="normal" in2="shape" result="effect1_innerShadow_7_893"></feBlend>
</filter>
<filter id="filter2_d_7_893" x="36" y="35" width="162" height="162" filterUnits="userSpaceOnUse" color-interpolation-filters="sRGB">
<feFlood flood-opacity="0" result="BackgroundImageFix"></feFlood>
<feColorMatrix in="SourceAlpha" type="matrix" values="0 0 0 0 0 0 0 0 0 0 0 0 0 0 0 0 0 0 127 0" result="hardAlpha"></feColorMatrix>
<feOffset></feOffset>
<feGaussianBlur stdDeviation="5"></feGaussianBlur>
<feComposite in2="hardAlpha" operator="out"></feComposite>
<feColorMatrix type="matrix" values="0 0 0 0 0 0 0 0 0 0 0 0 0 0 0 0 0 0 0.1 0"></feColorMatrix>
<feBlend mode="normal" in2="BackgroundImageFix" result="effect1_dropShadow_7_893"></feBlend>
<feBlend mode="normal" in="SourceGraphic" in2="effect1_dropShadow_7_893" result="shape"></feBlend>
</filter>
<clipPath id="paint0_angular_7_893_clip_path"><path d="M15.5 116C15.5 95.3955 21.6755 76.2183 32.2773 60.2363C33.8038 57.9352 36.9069 57.3065 39.208 58.833C41.5091 60.3595 42.1367 63.4626 40.6104 65.7637C31.0619 80.1576 25.5 97.4218 25.5 116C25.5 166.258 66.2421 207 116.5 207C166.758 207 207.5 166.258 207.5 116C207.5 65.7421 166.758 25 116.5 25C113.739 25 111.5 22.7614 111.5 20C111.5 17.2386 113.739 15 116.5 15C172.281 15 217.5 60.2192 217.5 116C217.5 171.781 172.281 217 116.5 217C60.7192 217 15.5 171.781 15.5 116Z"></path></clipPath></defs>
</svg>