<svg xmlns="http://www.w3.org/2000/svg" width="12" height="4" viewBox="0 0 12 4" fill="none">
  <path d="M 6 0 L 6.555 -0.832 L 6 -1.202 L 5.445 -0.832 L 6 0 Z M 11.445 4.832 C 11.905 5.138 12.526 5.014 12.832 4.555 C 13.138 4.095 13.014 3.474 12.555 3.168 L 12 4 L 11.445 4.832 Z M -0.555 3.168 C -1.014 3.474 -1.138 4.095 -0.832 4.555 C -0.526 5.014 0.095 5.138 0.555 4.832 L 0 4 L -0.555 3.168 Z M 6 0 L 5.445 0.832 L 11.445 4.832 L 12 4 L 12.555 3.168 L 6.555 -0.832 L 6 0 Z M 0 4 L 0.555 4.832 L 6.555 0.832 L 6 0 L 5.445 -0.832 L -0.555 3.168 L 0 4 Z" fill="currentColor" fill-rule="nonzero"></path>
</svg>