<svg xmlns="http://www.w3.org/2000/svg" width="20" height="16" viewBox="0 0 20 16" fill="none">
  <path d="M 3 4 C 3 2.939 3.421 1.922 4.172 1.172 C 4.922 0.421 5.939 0 7 0 C 8.061 0 9.078 0.421 9.828 1.172 C 10.579 1.922 11 2.939 11 4 C 11 5.061 10.579 6.078 9.828 6.828 C 9.078 7.579 8.061 8 7 8 C 5.939 8 4.922 7.579 4.172 6.828 C 3.421 6.078 3 5.061 3 4 Z M 0 15.072 C 0 11.994 2.494 9.5 5.572 9.5 L 8.428 9.5 C 11.506 9.5 14 11.994 14 15.072 C 14 15.584 13.584 16 13.072 16 L 0.928 16 C 0.416 16 0 15.584 0 15.072 Z M 15.75 9.75 L 15.75 7.75 L 13.75 7.75 C 13.334 7.75 13 7.416 13 7 C 13 6.584 13.334 6.25 13.75 6.25 L 15.75 6.25 L 15.75 4.25 C 15.75 3.834 16.084 3.5 16.5 3.5 C 16.916 3.5 17.25 3.834 17.25 4.25 L 17.25 6.25 L 19.25 6.25 C 19.666 6.25 20 6.584 20 7 C 20 7.416 19.666 7.75 19.25 7.75 L 17.25 7.75 L 17.25 9.75 C 17.25 10.166 16.916 10.5 16.5 10.5 C 16.084 10.5 15.75 10.166 15.75 9.75 Z" fill="currentColor" fill-rule="nonzero"></path>
</svg>