<svg xmlns="http://www.w3.org/2000/svg" width="192" height="192" viewBox="0 0 192 192" fill="none">
  <path d="M 96 -5 C 93.239 -5 91 -2.761 91 0 C 91 2.761 93.239 5 96 5 L 96 0 L 96 -5 Z M 20.11 45.764 C 21.637 43.463 21.009 40.36 18.708 38.833 C 16.407 37.307 13.304 37.935 11.777 40.236 L 15.944 43 L 20.11 45.764 Z M 192 96 L 187 96 C 187 146.258 146.258 187 96 187 L 96 192 L 96 197 C 151.781 197 197 151.781 197 96 L 192 96 Z M 96 192 L 96 187 C 45.742 187 5 146.258 5 96 L 0 96 L -5 96 C -5 151.781 40.219 197 96 197 L 96 192 Z M 96 0 L 96 5 C 146.258 5 187 45.742 187 96 L 192 96 L 197 96 C 197 40.219 151.781 -5 96 -5 L 96 0 Z M 0 96 L 5 96 C 5 77.422 10.562 60.158 20.11 45.764 L 15.944 43 L 11.777 40.236 C 1.175 56.218 -5 75.395 -5 96 L 0 96 Z" fill="currentColor" fill-rule="nonzero"></path>
</svg>