<svg xmlns="http://www.w3.org/2000/svg" width="138.412" height="5.324" viewBox="0 0 138.412 5.324" fill="none">
  <path d="M 138.896 2.617 C 140.342 2.35 141.297 0.961 141.029 -0.485 C 140.761 -1.93 139.373 -2.885 137.927 -2.617 L 138.412 0 L 138.896 2.617 Z M 0.485 -2.617 C -0.961 -2.885 -2.35 -1.93 -2.617 -0.485 C -2.885 0.961 -1.93 2.35 -0.485 2.617 L 0 0 L 0.485 -2.617 Z M 138.412 0 L 137.927 -2.617 C 120.36 0.636 96.081 2.662 69.206 2.662 L 69.206 5.324 L 69.206 7.985 C 96.306 7.985 120.924 5.946 138.896 2.617 L 138.412 0 Z M 69.206 5.324 L 69.206 2.662 C 42.331 2.662 18.052 0.636 0.485 -2.617 L 0 0 L -0.485 2.617 C 17.488 5.946 42.106 7.985 69.206 7.985 L 69.206 5.324 Z" fill="currentColor" fill-rule="nonzero"></path>
</svg>