<svg xmlns="http://www.w3.org/2000/svg" width="14" height="14" viewBox="0 0 14 14" fill="none">
  <path d="M 6.122 1.61 C 6.501 0.915 7.499 0.915 7.878 1.61 L 8.953 3.582 C 9.097 3.846 9.352 4.031 9.647 4.086 L 11.855 4.499 C 12.633 4.645 12.942 5.594 12.398 6.169 L 10.855 7.802 C 10.648 8.02 10.551 8.319 10.59 8.617 L 10.879 10.845 C 10.98 11.63 10.173 12.216 9.458 11.877 L 7.429 10.914 C 7.157 10.785 6.843 10.785 6.571 10.914 L 4.542 11.877 C 3.827 12.216 3.02 11.63 3.121 10.845 L 3.41 8.617 C 3.449 8.319 3.352 8.02 3.145 7.802 L 1.602 6.169 C 1.058 5.594 1.367 4.645 2.145 4.499 L 4.353 4.086 C 4.648 4.031 4.903 3.846 5.047 3.582 L 6.122 1.61 Z" fill="currentColor" fill-rule="nonzero"></path>
</svg>