<svg width="139" height="100" viewBox="0 0 139 100" fill="none" xmlns="http://www.w3.org/2000/svg">
<path d="M123.891 10.3052C123.891 7.72206 125.613 6 128.196 6C130.779 6 132.501 7.72206 132.501 10.3052V19.0385L129.549 75.6206C129.549 76.3587 129.057 76.8507 128.196 76.8507C127.458 76.8507 126.966 76.3587 126.966 75.6206L123.891 19.0385V10.3052ZM131.886 85.461V89.8892C131.886 91.9803 130.287 93.5793 128.196 93.5793C126.228 93.5793 124.506 91.8572 124.506 89.8892V85.461C124.506 83.3699 126.228 81.7709 128.196 81.7709C130.287 81.7709 131.886 83.3699 131.886 85.461Z" fill="#112A33"/>
<path d="M120.149 16.5784V45.2385C120.149 51.2657 117.688 55.0789 110.431 55.0789H107.848V89.8892C107.848 91.9803 106.249 93.5793 104.158 93.5793C102.067 93.5793 100.468 91.8573 100.468 89.8892V10.4282C100.468 8.2141 101.944 6.73804 104.158 6.73804H110.431C117.688 6.73804 120.149 10.5512 120.149 16.5784ZM112.768 17.1934C112.768 14.3643 112.03 13.6263 110.308 13.6263H107.848V48.1906H110.308C112.03 48.1906 112.768 47.3296 112.768 44.6235V17.1934Z" fill="#112A33"/>
<path d="M96.7247 9.69014V83.7389C96.7247 89.7662 93.0346 93.5793 87.0073 93.5793C80.9801 93.5793 77.0439 89.7662 77.0439 83.7389V9.69014C77.0439 7.59906 78.766 6 80.7341 6C82.8252 6 84.4242 7.59906 84.4242 9.69014V82.7549C84.4242 85.461 85.1622 86.6911 86.8843 86.6911C88.6064 86.6911 89.3444 85.461 89.3444 82.7549V9.69014C89.3444 7.59906 91.0665 6 93.0346 6C95.1256 6 96.7247 7.59906 96.7247 9.69014Z" fill="#112A33"/>
<path d="M65.9206 56.1859C65.9206 53.6028 65.3056 52.6188 63.4605 52.6188H61.0004V89.8892C61.0004 91.9803 59.4013 93.5793 57.3103 93.5793C55.2192 93.5793 53.6201 91.8573 53.6201 89.8892V10.4282C53.6201 8.2141 55.0962 6.73804 57.3103 6.73804H63.5835C70.2257 6.73804 73.3009 9.93616 73.3009 16.5784V41.5484C73.3009 45.9765 72.3168 47.6986 69.2417 49.0516V49.2977C72.3168 50.6507 73.3009 52.3728 73.3009 56.8009V89.8892C73.3009 91.9803 71.7018 93.5793 69.6107 93.5793C67.6426 93.5793 65.9206 91.8573 65.9206 89.8892V56.1859ZM65.9206 17.1934C65.9206 14.6103 65.3056 13.6263 63.4605 13.6263H61.0004V45.7305H63.4605C65.3056 45.7305 65.9206 44.8695 65.9206 42.1634V17.1934Z" fill="#112A33"/>
<path d="M49.877 9.69014V83.7389C49.877 89.7662 46.1869 93.5793 40.1597 93.5793C34.1324 93.5793 30.1963 89.7662 30.1963 83.7389V9.69014C30.1963 7.59906 31.9184 6 33.8864 6C35.9775 6 37.5766 7.59906 37.5766 9.69014V82.7549C37.5766 85.461 38.3146 86.6911 40.0367 86.6911C41.7587 86.6911 42.4968 85.461 42.4968 82.7549V9.69014C42.4968 7.59906 44.2188 6 46.1869 6C48.278 6 49.877 7.59906 49.877 9.69014Z" fill="#112A33"/>
<path d="M24.6967 6.73804C26.5418 6.73804 28.1408 8.3371 28.1408 10.1822C28.1408 12.0272 26.5418 13.6263 24.6967 13.6263H20.7606V89.8892C20.7606 91.9803 19.1615 93.5793 17.0704 93.5793C14.9793 93.5793 13.3803 91.8573 13.3803 89.8892V13.6263H9.44413C7.59906 13.6263 6 12.0272 6 10.1822C6 8.3371 7.59906 6.73804 9.44413 6.73804H24.6967Z" fill="#112A33"/>
<path d="M124.62 90.1807C124.72 92.01 126.292 93.583 128.121 93.6826L128.305 93.6875C130.396 93.6875 131.995 92.0881 131.995 89.9971V85.5693C131.995 83.4783 130.396 81.8789 128.305 81.8789C126.337 81.8791 124.615 83.4784 124.615 85.5693V89.9971L124.62 90.1807ZM132.61 10.4131C132.61 7.82999 130.888 6.1084 128.305 6.10840C125.722 6.10853 124 7.8301 124 10.4131V19.1465L127.075 75.7285L127.081 75.8643C127.138 76.5262 127.613 76.9589 128.305 76.959C129.112 76.959 129.595 76.5263 129.652 75.8643L129.658 75.7285L132.61 19.1465V10.4131ZM138.719 19.3057L138.71 19.4648L135.761 75.9932C135.731 76.8303 135.56 77.7154 135.207 78.5752C136.89 80.2353 137.964 82.5095 138.091 85.0596L138.104 85.5693V89.9971C138.104 95.4617 133.769 99.7959 128.305 99.7959C122.963 99.7957 118.507 95.3386 118.507 89.9971V85.5693C118.507 82.7457 119.675 80.2766 121.502 78.5234C121.169 77.6908 121.001 76.8296 120.972 76.001L119.561 50.0352C120.042 48.6891 120.257 47.1136 120.257 45.3467V16.6865C120.257 13.5609 119.593 11.033 117.943 9.32129C118.163 7.00999 119.09 4.74688 120.864 2.97266C122.917 0.91959 125.625 7.02989e-05 128.305 0C130.984 0 133.692 0.919624 135.745 2.97266C137.798 5.0258 138.719 7.73342 138.719 10.4131V19.3057Z" fill="white"/>
<path d="M100.581 90.1807C100.674 92.0099 102.141 93.5829 104.071 93.6826L104.267 93.6875C106.358 93.6873 107.956 92.088 107.956 89.9971V55.1865H110.539C117.569 55.1865 120.099 51.6084 120.25 45.9053L120.257 45.3467V16.6865C120.257 10.6593 117.796 6.8457 110.539 6.8457V0.737305C115.186 0.737305 119.591 1.97802 122.679 5.44043C123.438 6.29214 124.049 7.20532 124.54 8.15332C124.191 8.79028 124 9.55395 124 10.4131V19.1465L125.719 50.7842C125.179 52.8313 124.241 54.8408 122.679 56.5928C120.386 59.1631 117.368 60.5075 114.064 61.0303V89.9971C114.064 95.4616 109.731 99.7957 104.267 99.7959C98.9386 99.7959 94.8764 95.6349 94.499 90.7412C96.0062 89.0504 96.833 86.6968 96.833 83.8467V9.79785C96.8329 8.47518 96.1928 7.34991 95.1934 6.70117C95.6516 5.55673 96.3347 4.47781 97.2715 3.54102C99.217 1.59562 101.772 0.737305 104.267 0.737305V6.8457L104.061 6.85059C101.961 6.93939 100.576 8.39135 100.576 10.5361V89.9971L100.581 90.1807ZM110.416 13.7344C112.138 13.7344 112.877 14.4727 112.877 17.3018V44.7314C112.877 47.4375 112.138 48.2988 110.416 48.2988H107.956V13.7344H110.416ZM110.539 0.737305V6.8457H104.267V0.737305H110.539Z" fill="white"/>
<path d="M96.833 9.79785C96.8329 7.70688 95.2336 6.1084 93.1426 6.1084C91.1747 6.10861 89.4532 7.70702 89.4531 9.79785V82.8633L89.4443 83.3525C89.357 85.7175 88.6074 86.7986 86.9932 86.7988L86.834 86.7949C85.3289 86.7249 84.6254 85.6388 84.541 83.3525L84.5322 82.8633V9.79785C84.5321 7.70698 82.9336 6.10854 80.8428 6.1084C78.8748 6.1084 77.1525 7.70688 77.1523 9.79785V83.8467C77.1523 89.6855 80.8463 93.4463 86.5566 93.6758L87.1162 93.6875C93.1432 93.6873 96.833 89.8737 96.833 83.8467V9.79785ZM102.593 7.17773C101.34 7.73186 100.576 8.94333 100.576 10.5361V89.9971C100.576 90.6674 100.762 91.3093 101.089 91.8643C100.441 93.1077 99.6138 94.2669 98.5928 95.3066C95.5582 98.3969 91.4424 99.7958 87.1162 99.7959C82.8012 99.7959 78.6708 98.4073 75.5938 95.3848C74.5131 94.3232 73.6315 93.1284 72.9424 91.8359C73.2403 91.2995 73.4092 90.6744 73.4092 89.9971V56.9092C73.4092 53.4259 72.8006 51.6166 71.0439 50.3447V48.2188C72.8 46.9469 73.4092 45.139 73.4092 41.6562V16.6865C73.4092 13.376 72.6453 10.9209 71.0566 9.29102C71.324 3.94988 75.7928 0 80.8428 0C83.197 6.26464e-05 85.3402 0.805517 87.0186 2.1582C88.724 0.79649 90.8747 9.04146e-05 93.1426 0C97.6972 0 101.464 3.01101 102.593 7.17773Z" fill="white"/>
<path d="M53.7285 89.9971C53.7285 91.9038 55.2295 93.58 57.2246 93.6826L57.4189 93.6875C59.4447 93.6874 61.0089 92.1864 61.1045 90.1914L61.1094 89.9971V52.7266H63.5693C65.4141 52.7267 66.0293 53.711 66.0293 56.2939V89.9971C66.0293 91.9035 67.645 93.5796 69.5352 93.6826L69.7188 93.6875C71.8098 93.6875 73.4092 92.0881 73.4092 89.9971V56.9092C73.4092 52.4811 72.4255 50.7583 69.3506 49.4053V49.1592C72.4253 47.8062 73.4092 46.0842 73.4092 41.6562V16.6865C73.4092 10.252 70.5236 7.04947 64.3047 6.85547L63.6924 6.8457V0.737305C67.8955 0.737366 72.2138 1.74841 75.4014 4.99707C76.3105 5.92366 77.0366 6.94088 77.6104 8.01758C77.3198 8.54061 77.1524 9.14536 77.1523 9.79785V83.8467C77.1523 86.633 77.995 88.945 79.4951 90.627C79.1768 95.791 74.9716 99.7959 69.7188 99.7959C67.4285 99.7958 65.3025 98.9743 63.6191 97.6172C61.9372 98.9818 59.7847 99.7959 57.4189 99.7959C52.0909 99.7959 48.0288 95.6349 47.6514 90.7412C49.1586 89.0504 49.9854 86.6968 49.9854 83.8467V9.79785C49.9853 8.47562 49.3456 7.35099 48.3467 6.70215C48.8049 5.55749 49.4869 4.47796 50.4238 3.54102C52.3693 1.59556 54.9238 0.737305 57.4189 0.737305V6.8457L57.2129 6.85059C55.1137 6.93947 53.7285 8.39141 53.7285 10.5361V89.9971ZM63.5693 13.7344C65.4141 13.7345 66.0293 14.7188 66.0293 17.3018V42.2715C66.0293 44.9773 65.4141 45.8388 63.5693 45.8389H61.1094V13.7344H63.5693ZM63.6924 0.737305V6.8457H57.4189V0.737305H63.6924Z" fill="white"/>
<path d="M49.9854 9.79785C49.9852 7.70702 48.3867 6.10861 46.2959 6.1084C44.3279 6.1084 42.6056 7.70688 42.6055 9.79785V82.8633L42.5967 83.3525C42.5094 85.7176 41.7599 86.7987 40.1455 86.7988L39.9863 86.7949C38.4814 86.7249 37.7787 85.6387 37.6943 83.3525L37.6855 82.8633V9.79785C37.6854 7.70692 36.0861 6.10845 33.9951 6.1084C32.0271 6.1084 30.3048 7.70688 30.3047 9.79785V83.8467C30.3047 89.6854 33.9987 93.4463 39.709 93.6758L40.2686 93.6875C46.2956 93.6874 49.9854 89.8738 49.9854 83.8467V9.79785ZM55.7451 7.17773C54.4922 7.73189 53.7285 8.94339 53.7285 10.5361V89.9971C53.7285 90.6671 53.9142 91.3085 54.2412 91.8633C53.5929 93.107 52.7664 94.2667 51.7451 95.3066C48.7105 98.397 44.5948 99.7958 40.2686 99.7959C35.9535 99.7959 31.8231 98.4073 28.7461 95.3848C25.656 92.3494 24.1963 88.2229 24.1963 83.8467V13.7344H24.8057C26.6506 13.7341 28.249 12.135 28.249 10.29C28.249 8.44514 26.6505 6.84595 24.8057 6.8457H24.6455C25.9212 2.78751 29.7528 0 33.9951 0C36.3497 2.13729e-05 38.4934 0.805248 40.1719 2.1582C41.8774 0.796649 44.028 0 46.2959 0C50.8503 0.000180387 54.6161 3.01116 55.7451 7.17773Z" fill="white"/>
<path d="M13.4932 90.1807C13.5857 92.0101 15.0538 93.5831 16.9844 93.6826L17.1787 93.6875C19.2045 93.6875 20.7686 92.1864 20.8643 90.1914L20.8691 89.9971V13.7344H24.8057L24.9775 13.7295C26.7487 13.6339 28.249 12.0774 28.249 10.29C28.249 8.50268 26.7487 6.94617 24.9775 6.85059L24.8057 6.8457V0.737305C28.5502 0.737476 31.8383 2.96965 33.3975 6.1582C31.6912 6.44272 30.3048 7.92189 30.3047 9.79785V18.0645C29.3144 18.7715 28.1887 19.295 26.9775 19.584V89.9971L26.9648 90.5059C26.7055 95.7283 22.4726 99.7959 17.1787 99.7959C11.5826 99.7958 7.38086 95.2055 7.38086 89.9971V19.584C3.33777 18.6194 0.233498 15.038 0.0126953 10.7764L0 10.29L0.0126953 9.80371C0.271747 4.80491 4.49712 0.737305 9.55273 0.737305V6.8457L9.38086 6.85059C7.60946 6.9459 6.10843 8.50251 6.1084 10.29C6.1084 12.0776 7.60944 13.6342 9.38086 13.7295L9.55273 13.7344H13.4893V89.9971L13.4932 90.1807ZM24.8057 0.737305V6.8457H9.55273V0.737305H24.8057Z" fill="white"/>
</svg>
