<svg width="359" height="249" viewBox="0 0 359 249" fill="none" xmlns="http://www.w3.org/2000/svg">
<g filter="url(#filter0_d_7_340)">
<rect x="16" y="16" width="327" height="217" rx="12" fill="white" shape-rendering="crispEdges"></rect>
<path d="M44.2188 49.4062H42.4688V35.2656H44.2188V49.4062ZM36.6094 36.2969C37.3177 36.2969 37.9479 36.5026 38.5 36.9141C39.0573 37.3203 39.4948 37.901 39.8125 38.6562C40.1302 39.4062 40.2917 40.2812 40.2969 41.2812C40.2917 42.2865 40.1302 43.1667 39.8125 43.9219C39.5 44.6771 39.0651 45.2604 38.5078 45.6719C37.9505 46.0781 37.3177 46.2812 36.6094 46.2812C35.8958 46.2812 35.2604 46.0781 34.7031 45.6719C34.1458 45.2604 33.7083 44.6771 33.3906 43.9219C33.0781 43.1667 32.9219 42.2865 32.9219 41.2812C32.9219 40.2812 33.0781 39.4062 33.3906 38.6562C33.7083 37.901 34.1458 37.3203 34.7031 36.9141C35.2604 36.5026 35.8958 36.2969 36.6094 36.2969ZM36.6094 37.8594C36.2083 37.8594 35.8542 37.9948 35.5469 38.2656C35.2448 38.5365 35.0104 38.9297 34.8438 39.4453C34.6771 39.9609 34.5938 40.5729 34.5938 41.2812C34.5938 41.9948 34.6771 42.6094 34.8438 43.125C35.0104 43.6406 35.2448 44.0365 35.5469 44.3125C35.8542 44.5833 36.2083 44.7188 36.6094 44.7188C37.0052 44.7188 37.3542 44.5833 37.6562 44.3125C37.9583 44.0365 38.1927 43.6406 38.3594 43.125C38.526 42.6094 38.6094 41.9948 38.6094 41.2812C38.6094 40.5729 38.526 39.9635 38.3594 39.4531C38.1927 38.9375 37.9583 38.5443 37.6562 38.2734C37.3542 37.9974 37.0052 37.8594 36.6094 37.8594ZM57.645 45.7031H55.9106V40.5H53.0669V43.4062H46.4575V36.2031H48.1919V38.4844H51.3481V36.2031H53.0669V39.0938H55.9106V35.2812H57.645V45.7031ZM57.9575 49.1094H48.3325V44.6719H50.0981V47.7031H57.9575V49.1094ZM51.3481 42.0312V39.8281H48.1919V42.0312H51.3481ZM72.04 44.5469H66.4306V49.375H64.7119V44.5469H59.165V43.1406H72.04V44.5469ZM70.8525 37.4375H66.6103C66.6468 37.9531 66.8681 38.4505 67.2744 38.9297C67.6806 39.4036 68.2379 39.8099 68.9463 40.1484C69.6546 40.487 70.4619 40.7135 71.3681 40.8281L70.7431 42.1875C69.5452 42.0208 68.4957 41.6771 67.5947 41.1562C66.6989 40.6354 66.0348 39.9896 65.6025 39.2188C65.1702 39.9844 64.5061 40.6302 63.6103 41.1562C62.7145 41.6771 61.6754 42.0208 60.4931 42.1875L59.8369 40.8281C60.7379 40.7135 61.54 40.487 62.2431 40.1484C62.9515 39.8099 63.5088 39.4036 63.915 38.9297C64.3265 38.4505 64.553 37.9531 64.5947 37.4375H60.3525V36.0625H70.8525V37.4375ZM82.2675 37.5781V37.75C82.2571 38.526 82.231 39.2188 82.1894 39.8281C82.1477 40.4375 82.054 41.1198 81.9081 41.875C82.3456 41.8281 82.679 41.7865 82.9081 41.75L83.0019 43.0625C82.1998 43.2083 81.2363 43.3255 80.1113 43.4141V48.25H78.4394V43.5156C77.6581 43.5469 76.7883 43.5677 75.83 43.5781L75.6269 42.125C77.4238 42.125 78.9602 42.0859 80.2363 42.0078C80.3352 41.5443 80.4238 41.0052 80.5019 40.3906L76.3769 40.7188L76.1738 39.3438L80.6034 39.125C80.6191 38.6875 80.6269 38.2812 80.6269 37.9062H76.5488V36.5H82.2675V37.5781ZM88.1113 49.3906H86.4706V35.2656H88.1113V49.3906ZM85.2988 48.6719H83.6738V45.625H81.2519V44.2969H83.6738V35.5312H85.2988V48.6719ZM96.475 37.2031C96.475 37.9271 96.6937 38.6328 97.1312 39.3203C97.574 40.0078 98.1833 40.6016 98.9594 41.1016C99.7354 41.5964 100.605 41.9271 101.569 42.0938L100.787 43.5469C99.6052 43.2969 98.5531 42.8359 97.6312 42.1641C96.7146 41.487 96.0271 40.6719 95.5687 39.7188C95.1 40.6667 94.4047 41.4792 93.4828 42.1562C92.5609 42.8281 91.5115 43.2917 90.3344 43.5469L89.5687 42.0938C90.5219 41.9219 91.3812 41.5885 92.1469 41.0938C92.9177 40.5938 93.5219 40 93.9594 39.3125C94.4021 38.625 94.626 37.9219 94.6312 37.2031V36.1562H96.475V37.2031ZM102.084 47.5938H89.1781V46.1562H102.084V47.5938ZM114.011 44.0469H104.104V36.375H113.886V37.7812H105.87V39.4844H113.558V40.8438H105.87V42.6719H114.011V44.0469ZM115.433 47.6719H102.526V46.25H115.433V47.6719ZM126.066 37.4219H121.457V40.5625C122.78 40.5521 123.874 40.5156 124.738 40.4531C125.603 40.3854 126.462 40.2656 127.316 40.0938L127.504 41.4375C126.624 41.6406 125.715 41.7734 124.777 41.8359C123.845 41.8932 122.545 41.9219 120.879 41.9219H119.738V36.0312H126.066V37.4219ZM130.332 38.0469H132.301V39.4688H130.332V42.3281H128.598V35.2656H130.332V38.0469ZM130.332 46.6875H122.832V47.8125H130.769V49.2188H121.113V45.375H128.598V44.3281H121.098V42.9375H130.332V46.6875ZM137.711 37.2969C137.706 37.9479 137.828 38.5625 138.078 39.1406C138.328 39.7188 138.703 40.2292 139.203 40.6719C139.709 41.1094 140.321 41.4427 141.039 41.6719L140.102 43.0312C139.341 42.7656 138.69 42.3854 138.149 41.8906C137.612 41.3958 137.19 40.8073 136.883 40.125C136.565 40.9115 136.11 41.5938 135.516 42.1719C134.922 42.7448 134.206 43.1771 133.368 43.4688L132.446 42.0625C133.206 41.8125 133.849 41.4505 134.375 40.9766C134.901 40.5026 135.297 39.9557 135.563 39.3359C135.828 38.7161 135.961 38.0625 135.961 37.375V36.0312H137.711V37.2969ZM144.368 43.5781H142.633V39.4219H139.821V38H142.633V35.2656H144.368V43.5781ZM139.586 43.9531C140.581 43.9531 141.44 44.0599 142.164 44.2734C142.894 44.487 143.451 44.7995 143.836 45.2109C144.222 45.6172 144.414 46.1042 144.414 46.6719C144.414 47.2396 144.222 47.7266 143.836 48.1328C143.451 48.5391 142.896 48.8464 142.172 49.0547C141.448 49.2682 140.586 49.375 139.586 49.375C138.591 49.375 137.732 49.2682 137.008 49.0547C136.289 48.8464 135.737 48.5391 135.352 48.1328C134.972 47.7266 134.784 47.2396 134.789 46.6719C134.784 46.1042 134.972 45.6172 135.352 45.2109C135.737 44.7995 136.292 44.487 137.016 44.2734C137.74 44.0599 138.597 43.9531 139.586 43.9531ZM139.586 45.2969C138.597 45.2969 137.836 45.4167 137.305 45.6562C136.774 45.8906 136.508 46.2292 136.508 46.6719C136.508 47.1042 136.774 47.4375 137.305 47.6719C137.841 47.901 138.602 48.0156 139.586 48.0156C140.571 48.0156 141.331 47.8984 141.868 47.6641C142.409 47.4297 142.68 47.099 142.68 46.6719C142.68 46.2292 142.412 45.8906 141.875 45.6562C141.339 45.4167 140.576 45.2969 139.586 45.2969ZM158.778 42.875H155.497V43.8438H157.216V47.0625H149.122V48.0625H157.637V49.2656H147.387V45.9375H155.497V45.0625H147.372V43.8438H149.169V42.875H145.872V41.5781H158.778V42.875ZM157.184 38.75H149.231V39.6094H157.434V40.8125H147.512V37.625H155.45V36.7656H147.466V35.5781H157.184V38.75ZM153.778 43.8438V42.875H150.887V43.8438H153.778Z" fill="#656B67"></path>
<rect x="38" y="76" width="12" height="120" rx="6" fill="#EEF0EE"></rect>
<rect x="38" y="100" width="12" height="96" rx="6" fill="url(#paint0_linear_7_340)"></rect>
<path d="M33.4381 204.516H34.7037L37.5631 211.5H37.6686L40.528 204.516H41.7936V213H40.7975V206.59H40.7155L38.0787 213H37.1412L34.5045 206.59H34.4342V213H33.4381V204.516ZM45.7812 213.129C44.0469 213.129 42.875 211.828 42.875 209.848C42.875 207.867 44.0469 206.555 45.7812 206.555C47.5039 206.555 48.6641 207.867 48.6641 209.848C48.6641 211.828 47.5039 213.129 45.7812 213.129ZM45.7812 212.238C47.0586 212.238 47.6562 211.113 47.6562 209.848C47.6562 208.582 47.0586 207.445 45.7812 207.445C44.4805 207.445 43.8828 208.582 43.8828 209.848C43.8828 211.113 44.4805 212.238 45.7812 212.238ZM50.6361 209.18V213H49.6283V206.637H50.6009V207.633H50.683C50.9877 206.988 51.5736 206.555 52.5462 206.555C53.8353 206.555 54.6908 207.34 54.6908 208.957V213H53.683V209.027C53.683 208.043 53.1439 207.457 52.2416 207.457C51.3158 207.457 50.6361 208.078 50.6361 209.18Z" fill="#A8B2AB"></path>
<rect x="83.1666" y="76" width="12" height="120" rx="6" fill="#EEF0EE"></rect>
<rect x="83.1666" y="148" width="12" height="48" rx="6" fill="url(#paint1_linear_7_340)"></rect>
<path d="M80.1223 205.453V204.516H86.5208V205.453H83.8606V213H82.7942V205.453H80.1223ZM90.6022 210.387V206.637H91.5983V213H90.6022V211.922H90.5319C90.2272 212.566 89.6061 213.082 88.6451 213.082C87.4381 213.082 86.5826 212.297 86.5826 210.68V206.637H87.5905V210.609C87.5905 211.523 88.1647 212.109 88.9733 212.109C89.6881 212.109 90.6022 211.57 90.6022 210.387ZM95.5273 213.129C93.6875 213.129 92.5508 211.828 92.5508 209.871C92.5508 207.914 93.6992 206.555 95.4336 206.555C96.7695 206.555 98.1758 207.375 98.1758 209.73V210.152H93.5586C93.6055 211.5 94.3906 212.238 95.5273 212.238C96.289 212.238 96.7695 211.91 97.0039 211.512H98.082C97.7773 212.473 96.8398 213.129 95.5273 213.129ZM93.5703 209.297H97.1562C97.1562 208.23 96.4765 207.445 95.4336 207.445C94.332 207.445 93.6289 208.312 93.5703 209.297Z" fill="#A8B2AB"></path>
<rect x="128.333" y="76" width="12" height="120" rx="6" fill="#EEF0EE"></rect>
<rect x="128.333" y="124" width="12" height="72" rx="6" fill="url(#paint2_linear_7_340)"></rect>
<path d="M125.148 213L122.828 204.516H123.895L125.664 211.383H125.746L127.539 204.516H128.723L130.527 211.383H130.598L132.367 204.516H133.434L131.113 213H130.023L128.172 206.285H128.102L126.238 213H125.148ZM136.144 213.129C134.304 213.129 133.167 211.828 133.167 209.871C133.167 207.914 134.316 206.555 136.05 206.555C137.386 206.555 138.792 207.375 138.792 209.73V210.152H134.175C134.222 211.5 135.007 212.238 136.144 212.238C136.906 212.238 137.386 211.91 137.62 211.512H138.699C138.394 212.473 137.456 213.129 136.144 213.129ZM134.187 209.297H137.773C137.773 208.23 137.093 207.445 136.05 207.445C134.949 207.445 134.245 208.312 134.187 209.297ZM142.147 213.129C140.565 213.129 139.44 211.852 139.44 209.836C139.44 207.82 140.565 206.555 142.159 206.555C143.389 206.555 143.788 207.305 143.999 207.645H144.069V204.516H145.089V213H144.104V212.027H143.999C143.776 212.379 143.366 213.129 142.147 213.129ZM142.288 212.227C143.448 212.227 144.104 211.242 144.104 209.812C144.104 208.406 143.471 207.457 142.288 207.457C141.069 207.457 140.46 208.488 140.46 209.812C140.46 211.172 141.081 212.227 142.288 212.227Z" fill="#A8B2AB"></path>
<rect x="173.5" y="76" width="12" height="120" rx="6" fill="#EEF0EE"></rect>
<rect x="173.5" y="76" width="12" height="120" rx="6" fill="url(#paint3_linear_7_340)"></rect>
<path d="M169.969 205.453V204.516H176.368V205.453H173.708V213H172.641V205.453H169.969ZM178.293 209.18V213H177.285V204.516H178.293V207.633H178.375C178.668 206.977 179.242 206.555 180.25 206.555C181.551 206.555 182.418 207.328 182.418 208.957V213H181.41V209.027C181.41 208.031 180.859 207.457 179.945 207.457C178.996 207.457 178.293 208.078 178.293 209.18ZM187.695 210.387V206.637H188.691V213H187.695V211.922H187.624C187.32 212.566 186.699 213.082 185.738 213.082C184.531 213.082 183.675 212.297 183.675 210.68V206.637H184.683V210.609C184.683 211.523 185.257 212.109 186.066 212.109C186.781 212.109 187.695 211.57 187.695 210.387Z" fill="#56D2FF"></path>
<rect x="218.667" y="76" width="12" height="120" rx="6" fill="#EEF0EE"></rect>
<path d="M219.249 213V204.516H224.359V205.453H220.304V208.289H223.972V209.215H220.304V213H219.249ZM225.381 213V206.637H226.354V207.609H226.424C226.659 206.965 227.315 206.531 228.065 206.531C228.217 206.531 228.475 206.543 228.592 206.555V207.574C228.522 207.551 228.241 207.504 227.983 207.504C227.069 207.504 226.389 208.137 226.389 208.992V213H225.381ZM229.217 213V206.637H230.225V213H229.217ZM229.721 205.582C229.334 205.582 229.018 205.289 229.018 204.914C229.018 204.539 229.334 204.246 229.721 204.246C230.107 204.246 230.436 204.539 230.436 204.914C230.436 205.289 230.107 205.582 229.721 205.582Z" fill="#CBD1CD"></path>
<rect x="263.833" y="76" width="12" height="120" rx="6" fill="#EEF0EE"></rect>
<path d="M266.865 206.648C266.771 205.816 266.01 205.336 264.99 205.336C263.865 205.336 263.127 205.922 263.127 206.73C263.127 207.621 264.123 207.949 264.767 208.113L265.611 208.348C266.525 208.582 268.014 209.109 268.014 210.691C268.014 212.074 266.9 213.152 264.932 213.152C263.103 213.152 261.967 212.203 261.873 210.797H262.951C263.045 211.746 263.924 212.191 264.932 212.191C266.103 212.191 266.982 211.594 266.982 210.668C266.982 209.848 266.197 209.531 265.307 209.273L264.264 208.992C262.928 208.605 262.107 207.926 262.107 206.777C262.107 205.348 263.385 204.398 265.025 204.398C266.666 204.398 267.85 205.359 267.896 206.648H266.865ZM268.732 211.195C268.732 209.73 270.021 209.402 271.122 209.32C271.527 209.291 272.558 209.238 272.845 209.227V208.711C272.845 207.902 272.365 207.434 271.404 207.434C270.595 207.434 270.115 207.809 269.974 208.289H268.919C269.048 207.27 270.044 206.555 271.45 206.555C272.282 206.555 273.841 206.801 273.841 208.805V213H272.845V212.133H272.798C272.587 212.566 272.001 213.152 270.9 213.152C269.693 213.152 268.732 212.438 268.732 211.195ZM269.74 211.242C269.74 211.91 270.302 212.25 271.075 212.25C272.212 212.25 272.845 211.488 272.845 210.691V210.047L271.24 210.164C270.325 210.223 269.74 210.551 269.74 211.242ZM277.876 206.637V207.48H276.54V211.172C276.54 211.992 276.938 212.121 277.372 212.121C277.559 212.121 277.817 212.109 277.969 212.098V213.035C277.817 213.059 277.559 213.082 277.266 213.082C276.422 213.082 275.52 212.555 275.52 211.43V207.48H274.559V206.637H275.52V205.113H276.54V206.637H277.876Z" fill="#CBD1CD"></path>
<rect x="309" y="76" width="12" height="120" rx="6" fill="#EEF0EE"></rect>
<path d="M310.626 206.648C310.532 205.816 309.77 205.336 308.751 205.336C307.626 205.336 306.887 205.922 306.887 206.73C306.887 207.621 307.883 207.949 308.528 208.113L309.372 208.348C310.286 208.582 311.774 209.109 311.774 210.691C311.774 212.074 310.661 213.152 308.692 213.152C306.864 213.152 305.727 212.203 305.633 210.797H306.712C306.805 211.746 307.684 212.191 308.692 212.191C309.864 212.191 310.743 211.594 310.743 210.668C310.743 209.848 309.958 209.531 309.067 209.273L308.024 208.992C306.688 208.605 305.868 207.926 305.868 206.777C305.868 205.348 307.145 204.398 308.786 204.398C310.426 204.398 311.61 205.359 311.657 206.648H310.626ZM316.816 210.387V206.637H317.812V213H316.816V211.922H316.746C316.441 212.566 315.82 213.082 314.859 213.082C313.652 213.082 312.797 212.297 312.797 210.68V206.637H313.805V210.609C313.805 211.523 314.379 212.109 315.188 212.109C315.902 212.109 316.816 211.57 316.816 210.387ZM320.077 209.18V213H319.07V206.637H320.042V207.633H320.124C320.429 206.988 321.015 206.555 321.988 206.555C323.277 206.555 324.132 207.34 324.132 208.957V213H323.124V209.027C323.124 208.043 322.585 207.457 321.683 207.457C320.757 207.457 320.077 208.078 320.077 209.18Z" fill="#CBD1CD"></path>
</g>
<defs>
<filter id="filter0_d_7_340" x="0" y="0" width="359" height="249" filterUnits="userSpaceOnUse" color-interpolation-filters="sRGB">
<feFlood flood-opacity="0" result="BackgroundImageFix"></feFlood>
<feColorMatrix in="SourceAlpha" type="matrix" values="0 0 0 0 0 0 0 0 0 0 0 0 0 0 0 0 0 0 127 0" result="hardAlpha"></feColorMatrix>
<feOffset></feOffset>
<feGaussianBlur stdDeviation="8"></feGaussianBlur>
<feComposite in2="hardAlpha" operator="out"></feComposite>
<feColorMatrix type="matrix" values="0 0 0 0 0 0 0 0 0 0 0 0 0 0 0 0 0 0 0.05 0"></feColorMatrix>
<feBlend mode="normal" in2="BackgroundImageFix" result="effect1_dropShadow_7_340"></feBlend>
<feBlend mode="normal" in="SourceGraphic" in2="effect1_dropShadow_7_340" result="shape"></feBlend>
</filter>
<linearGradient id="paint0_linear_7_340" x1="44" y1="100" x2="44" y2="196" gradientUnits="userSpaceOnUse">
<stop stop-color="#BCEDFF"></stop>
<stop offset="1" stop-color="#1AC2FF"></stop>
</linearGradient>
<linearGradient id="paint1_linear_7_340" x1="89.1666" y1="148" x2="89.1666" y2="196" gradientUnits="userSpaceOnUse">
<stop stop-color="#BCEDFF"></stop>
<stop offset="1" stop-color="#1AC2FF"></stop>
</linearGradient>
<linearGradient id="paint2_linear_7_340" x1="134.333" y1="124" x2="134.333" y2="196" gradientUnits="userSpaceOnUse">
<stop stop-color="#BCEDFF"></stop>
<stop offset="1" stop-color="#1AC2FF"></stop>
</linearGradient>
<linearGradient id="paint3_linear_7_340" x1="179.5" y1="76" x2="179.5" y2="196" gradientUnits="userSpaceOnUse">
<stop stop-color="#BCEDFF"></stop>
<stop offset="1" stop-color="#1AC2FF"></stop>
</linearGradient>
</defs>
</svg>