<svg width="359" height="98" viewBox="0 0 359 98" fill="none" xmlns="http://www.w3.org/2000/svg">
<g filter="url(#filter0_d_7_918)">
<rect x="16" y="16" width="327" height="66" rx="12" fill="white" shape-rendering="crispEdges"></rect>
<rect x="16.5" y="16.5" width="326" height="65" rx="11.5" stroke="#FFDD63" shape-rendering="crispEdges"></rect>
<rect x="32" y="37" width="24" height="24" rx="12" fill="#FFDD63"></rect>
<path d="M48.1914 46.0586C48.4355 46.3027 48.4355 46.6992 48.1914 46.9434L43.1914 51.9434C42.9473 52.1875 42.5508 52.1875 42.3066 51.9434L39.8066 49.4434C39.5625 49.1992 39.5625 48.8027 39.8066 48.5586C40.0508 48.3145 40.4473 48.3145 40.6914 48.5586L42.75 50.6152L47.3086 46.0586C47.5527 45.8145 47.9492 45.8145 48.1934 46.0586H48.1914Z" fill="white"></path>
<path d="M79.5312 37.8906H81.7031V39.3281H79.5312V46.3906H77.8125V32.2656H79.5312V37.8906ZM76.7188 35.8281H68.3906V34.4375H71.7344V32.4688H73.4688V34.4375H76.7188V35.8281ZM72.6094 36.75C73.2812 36.75 73.8854 36.8932 74.4219 37.1797C74.9635 37.4609 75.388 37.8542 75.6953 38.3594C76.0026 38.8646 76.1562 39.4375 76.1562 40.0781C76.1562 40.7188 76.0026 41.2917 75.6953 41.7969C75.388 42.2969 74.9635 42.6875 74.4219 42.9688C73.8854 43.25 73.2812 43.3906 72.6094 43.3906C71.9271 43.3906 71.3151 43.25 70.7734 42.9688C70.2318 42.6875 69.8073 42.2969 69.5 41.7969C69.1927 41.2917 69.0417 40.7188 69.0469 40.0781C69.0417 39.4375 69.1927 38.8646 69.5 38.3594C69.8073 37.8542 70.2318 37.4609 70.7734 37.1797C71.3151 36.8932 71.9271 36.75 72.6094 36.75ZM72.6094 38.1719C72.2396 38.1719 71.9089 38.25 71.6172 38.4062C71.3307 38.5625 71.1068 38.7865 70.9453 39.0781C70.7839 39.3646 70.7031 39.6979 70.7031 40.0781C70.7031 40.4583 70.7839 40.7917 70.9453 41.0781C71.1068 41.3594 71.3307 41.5781 71.6172 41.7344C71.9089 41.8854 72.2396 41.9583 72.6094 41.9531C72.9688 41.9583 73.2891 41.8854 73.5703 41.7344C73.8568 41.5781 74.0807 41.3594 74.2422 41.0781C74.4089 40.7917 74.4948 40.4583 74.5 40.0781C74.4948 39.6979 74.4089 39.3646 74.2422 39.0781C74.0807 38.7917 73.8568 38.5703 73.5703 38.4141C73.2891 38.2526 72.9688 38.1719 72.6094 38.1719ZM93.2231 36.7031H83.4731V32.4531H85.1763V35.3125H93.2231V36.7031ZM94.7075 39.1719H81.8013V37.7812H94.7075V39.1719ZM93.1294 43.7656H85.0981V44.8594H93.5981V46.2188H83.3481V42.5H91.4106V41.5H83.3325V40.1562H93.1294V43.7656ZM104.904 32.4062C105.977 32.4062 106.891 32.5 107.646 32.6875C108.406 32.875 108.987 33.151 109.388 33.5156C109.789 33.875 109.992 34.3125 109.997 34.8281C109.992 35.5417 109.622 36.1042 108.888 36.5156C108.154 36.9271 107.107 37.1693 105.747 37.2422V38.1406H111.357V39.5312H98.4819V38.1406H104.029V37.2422C102.675 37.1641 101.633 36.9193 100.904 36.5078C100.175 36.0964 99.81 35.5365 99.81 34.8281C99.81 34.3125 100.011 33.875 100.412 33.5156C100.813 33.151 101.393 32.875 102.154 32.6875C102.914 32.5 103.831 32.4062 104.904 32.4062ZM104.904 33.7031C103.826 33.7031 103.008 33.7995 102.451 33.9922C101.899 34.1797 101.628 34.4583 101.638 34.8281C101.633 35.2135 101.901 35.5 102.443 35.6875C102.99 35.875 103.81 35.974 104.904 35.9844C106.008 35.974 106.833 35.875 107.38 35.6875C107.927 35.5 108.201 35.2135 108.201 34.8281C108.201 34.4583 107.922 34.1797 107.365 33.9922C106.813 33.7995 105.992 33.7031 104.904 33.7031ZM109.747 43.8906H101.716V44.9375H110.138V46.2656H100.013V42.6562H108.044V41.75H99.9975V40.4375H109.747V43.8906ZM123.658 46.4062H121.924V40.6094H119.346V39.1875H121.924V36.7656H119.393V35.3438H121.924V32.2656H123.658V46.4062ZM118.596 38.7656H114.064V41.7656C115.08 41.7552 116.007 41.724 116.846 41.6719C117.689 41.6146 118.559 41.5208 119.455 41.3906L119.596 42.8125C118.596 42.9688 117.632 43.0729 116.705 43.125C115.778 43.1771 114.689 43.2031 113.439 43.2031H112.346V37.4062H116.893V34.875H112.299V33.4844H118.596V38.7656ZM136.241 37.625H138.412V39.0469H136.241V46.4062H134.506V32.2656H136.241V37.625ZM132.366 35.0156H127.491V41.5C128.631 41.5 129.66 41.4661 130.577 41.3984C131.493 41.3307 132.423 41.2135 133.366 41.0469L133.569 42.5156C132.548 42.6927 131.537 42.8099 130.537 42.8672C129.543 42.9245 128.34 42.9531 126.928 42.9531H125.756V33.6094H132.366V35.0156ZM151.433 44.6875H138.526V43.2656H144.089V40.5156H139.948V33.2031H141.683V35.5156H148.229V33.2031H149.964V40.5156H145.808V43.2656H151.433V44.6875ZM148.229 39.1094V36.9062H141.683V39.1094H148.229ZM163.671 46.3906H161.921V32.2656H163.671V46.3906ZM159.452 33.7656C159.452 36.0104 158.945 37.9818 157.929 39.6797C156.913 41.3724 155.229 42.776 152.874 43.8906L151.968 42.5C153.786 41.6354 155.153 40.6016 156.07 39.3984C156.992 38.1901 157.531 36.7708 157.687 35.1406H152.687V33.7656H159.452Z" fill="#222222"></path>
<path d="M68.9297 65L68.916 64.0977L72.293 60.543C73.4688 59.2988 74.0293 58.6289 74.0293 57.7129C74.0293 56.7012 73.168 56.0312 72.0605 56.0312C70.8848 56.0312 70.1328 56.7832 70.1328 57.8906H68.9707C68.957 56.1406 70.3105 54.9648 72.1016 54.9648C73.8926 54.9648 75.1777 56.168 75.1777 57.7129C75.1777 58.8203 74.6582 59.6816 72.9082 61.4863L70.6387 63.8242V63.9062H75.3555V65H68.9297ZM79.9667 65.1367C77.7655 65.1367 76.5077 63.291 76.5077 60.0508C76.5077 56.8379 77.7929 54.9648 79.9667 54.9648C82.1405 54.9648 83.4257 56.8379 83.4257 60.0508C83.4257 63.291 82.1542 65.1367 79.9667 65.1367ZM79.9667 64.043C81.3886 64.043 82.2226 62.6074 82.2226 60.0508C82.2226 57.4941 81.3886 56.0312 79.9667 56.0312C78.5448 56.0312 77.6972 57.4941 77.6972 60.0508C77.6972 62.6074 78.5312 64.043 79.9667 64.043ZM95.3377 63.6738V64.5762H84.2088V63.6738H89.2264V60.8848H90.2791V63.6738H95.3377ZM94.2713 55.8945V56.7832H90.3065C90.3133 58.6904 92.3368 60.0918 94.6678 60.4746L94.2577 61.3223C92.3094 60.9736 90.5252 59.9961 89.7596 58.4785C88.9871 59.9961 87.203 60.9736 85.2479 61.3223L84.8241 60.4746C87.1688 60.0918 89.2059 58.6904 89.2127 56.7832H85.2479V55.8945H89.2264V54.2129H90.2791V55.8945H94.2713ZM105.39 53.9531V57.6582H107.222V58.5605H105.39V62.8535H104.31V53.9531H105.39ZM102.109 54.8965C102.109 58.0273 99.867 60.3516 96.367 61.4453L95.9021 60.584C98.8142 59.6748 100.715 57.9385 100.947 55.7988H96.408V54.8965H102.109ZM105.951 64.9453V65.8477H97.7752V61.9512H98.8416V64.9453H105.951ZM115.037 56.5645C115.037 58.2051 116.336 59.6816 118.154 60.2559L117.607 61.1172C116.192 60.6387 115.064 59.6406 114.517 58.3555C113.984 59.7432 112.842 60.8369 111.4 61.3633L110.839 60.502C112.658 59.8594 113.957 58.2871 113.957 56.5645V55.8535H111.113V54.9785H117.839V55.8535H115.037V56.5645ZM120.697 53.9668V62.8809H119.63V53.9668H120.697ZM121.08 64.9453V65.8477H112.849V62.0332H113.916V64.9453H121.08ZM132.664 53.9531V61.6504H131.638V58.1641H130.011V61.2129H129V54.1992H130.011V57.2754H131.638V53.9531H132.664ZM128.507 55.416V56.2773H122.273V55.416H124.871V54.0488H125.937V55.416H128.507ZM125.404 56.9336C126.949 56.9336 128.001 57.7402 128.015 59.0117C128.001 60.2559 126.949 61.0762 125.404 61.0762C123.873 61.0762 122.792 60.2559 122.806 59.0117C122.792 57.7402 123.873 56.9336 125.404 56.9336ZM125.404 57.7266C124.433 57.7266 123.763 58.2461 123.763 59.0117C123.763 59.7637 124.433 60.2695 125.404 60.2695C126.375 60.2695 127.044 59.7637 127.044 59.0117C127.044 58.2461 126.375 57.7266 125.404 57.7266ZM128.644 61.8555C131.201 61.8555 132.732 62.6211 132.732 63.9883C132.732 65.3145 131.201 66.0801 128.644 66.0801C126.087 66.0801 124.556 65.3145 124.57 63.9883C124.556 62.6211 126.087 61.8555 128.644 61.8555ZM128.644 62.7031C126.757 62.6895 125.623 63.1543 125.636 63.9883C125.623 64.7812 126.757 65.2461 128.644 65.2461C130.531 65.2461 131.652 64.7812 131.666 63.9883C131.652 63.1543 130.531 62.6895 128.644 62.7031Z" fill="#A8B2AB"></path>
<path d="M279.574 53.6172C277.688 53.6172 276.609 52.0352 276.609 49.2578C276.609 46.5039 277.711 44.8984 279.574 44.8984C281.438 44.8984 282.539 46.5039 282.539 49.2578C282.539 52.0352 281.449 53.6172 279.574 53.6172ZM279.574 52.6797C280.793 52.6797 281.508 51.4492 281.508 49.2578C281.508 47.0664 280.793 45.8125 279.574 45.8125C278.355 45.8125 277.629 47.0664 277.629 49.2578C277.629 51.4492 278.344 52.6797 279.574 52.6797ZM286.421 53.6172C284.64 53.6172 283.398 52.6328 283.41 51.25C283.398 50.1484 284.16 49.2461 285.132 49.0938V49.0469C284.288 48.8477 283.738 48.0742 283.738 47.1484C283.738 45.8477 284.874 44.8984 286.421 44.8984C287.968 44.8984 289.105 45.8477 289.117 47.1484C289.105 48.0742 288.542 48.8477 287.71 49.0469V49.0938C288.671 49.2461 289.433 50.1484 289.445 51.25C289.433 52.6328 288.191 53.6172 286.421 53.6172ZM286.421 52.6914C287.64 52.6914 288.39 52.082 288.39 51.1914C288.39 50.2539 287.558 49.5625 286.421 49.5625C285.285 49.5625 284.441 50.2539 284.464 51.1914C284.441 52.082 285.202 52.6914 286.421 52.6914ZM286.421 48.6719C287.382 48.6719 288.085 48.0859 288.085 47.2305C288.085 46.3867 287.417 45.8125 286.421 45.8125C285.413 45.8125 284.757 46.3867 284.757 47.2305C284.757 48.0859 285.449 48.6719 286.421 48.6719ZM291.229 52.375C290.819 52.375 290.467 52.0352 290.479 51.6133C290.467 51.2031 290.819 50.8633 291.229 50.8633C291.639 50.8633 291.979 51.2031 291.979 51.6133C291.979 52.0352 291.639 52.375 291.229 52.375ZM291.229 47.6641C290.819 47.6641 290.467 47.3242 290.479 46.9023C290.467 46.4922 290.819 46.1523 291.229 46.1523C291.639 46.1523 291.979 46.4922 291.979 46.9023C291.979 47.3242 291.639 47.6641 291.229 47.6641ZM296.119 53.6172C294.432 53.6172 293.225 52.7148 293.166 51.3672H294.233C294.291 52.1758 295.1 52.6797 296.108 52.6797C297.221 52.6797 298.041 52.0703 298.041 51.1914C298.041 50.2656 297.303 49.6094 295.979 49.6094H295.287V48.6836H295.979C297.01 48.6836 297.725 48.1094 297.725 47.2305C297.725 46.3867 297.104 45.8125 296.143 45.8125C295.24 45.8125 294.408 46.3164 294.361 47.1484H293.342C293.4 45.8008 294.643 44.8984 296.154 44.8984C297.772 44.8984 298.756 45.9531 298.744 47.1719C298.756 48.1328 298.193 48.8477 297.303 49.0938V49.1523C298.404 49.3281 299.084 50.1133 299.072 51.1914C299.084 52.5859 297.807 53.6172 296.119 53.6172ZM303.013 53.6172C301.126 53.6172 300.048 52.0352 300.048 49.2578C300.048 46.5039 301.15 44.8984 303.013 44.8984C304.876 44.8984 305.978 46.5039 305.978 49.2578C305.978 52.0352 304.888 53.6172 303.013 53.6172ZM303.013 52.6797C304.232 52.6797 304.947 51.4492 304.947 49.2578C304.947 47.0664 304.232 45.8125 303.013 45.8125C301.794 45.8125 301.068 47.0664 301.068 49.2578C301.068 51.4492 301.783 52.6797 303.013 52.6797ZM310.192 53.5H309.09L312.195 45.0156H313.309L316.414 53.5H315.301L314.457 51.1094H311.047L310.192 53.5ZM311.363 50.1836H314.129L312.781 46.3867H312.711L311.363 50.1836ZM317.203 45.0156H318.468L321.328 52H321.433L324.292 45.0156H325.558V53.5H324.562V47.0898H324.48L321.843 53.5H320.906L318.269 47.0898H318.199V53.5H317.203V45.0156Z" fill="#A8B2AB"></path>
</g>
<defs>
<filter id="filter0_d_7_918" x="0" y="0" width="359" height="98" filterUnits="userSpaceOnUse" color-interpolation-filters="sRGB">
<feFlood flood-opacity="0" result="BackgroundImageFix"></feFlood>
<feColorMatrix in="SourceAlpha" type="matrix" values="0 0 0 0 0 0 0 0 0 0 0 0 0 0 0 0 0 0 127 0" result="hardAlpha"></feColorMatrix>
<feOffset></feOffset>
<feGaussianBlur stdDeviation="8"></feGaussianBlur>
<feComposite in2="hardAlpha" operator="out"></feComposite>
<feColorMatrix type="matrix" values="0 0 0 0 0 0 0 0 0 0 0 0 0 0 0 0 0 0 0.05 0"></feColorMatrix>
<feBlend mode="normal" in2="BackgroundImageFix" result="effect1_dropShadow_7_918"></feBlend>
<feBlend mode="normal" in="SourceGraphic" in2="effect1_dropShadow_7_918" result="shape"></feBlend>
</filter>
</defs>
</svg>