<svg width="327" height="66" viewBox="0 0 327 66" fill="none" xmlns="http://www.w3.org/2000/svg">
<rect x="16" y="17" width="32" height="32" rx="4" fill="url(#paint0_linear_7_382)"></rect>
<path d="M38.125 31.3666C37.8451 29.9481 37.0813 28.6707 35.9642 27.7527C34.8471 26.8347 33.4459 26.333 32 26.3333C29.5917 26.3333 27.5 27.7 26.4583 29.7C25.2335 29.8323 24.1008 30.4127 23.2779 31.3294C22.455 32.2462 21.9999 33.4347 22 34.6666C22 37.425 24.2417 39.6666 27 39.6666H37.8333C40.1333 39.6666 42 37.8 42 35.5C42 33.3 40.2917 31.5166 38.125 31.3666Z" fill="white"></path>
<path d="M75.5312 21.8906H77.7031V23.3281H75.5312V30.3906H73.8125V16.2656H75.5312V21.8906ZM72.7188 19.8281H64.3906V18.4375H67.7344V16.4688H69.4688V18.4375H72.7188V19.8281ZM68.6094 20.75C69.2812 20.75 69.8854 20.8932 70.4219 21.1797C70.9635 21.4609 71.388 21.8542 71.6953 22.3594C72.0026 22.8646 72.1562 23.4375 72.1562 24.0781C72.1562 24.7188 72.0026 25.2917 71.6953 25.7969C71.388 26.2969 70.9635 26.6875 70.4219 26.9688C69.8854 27.25 69.2812 27.3906 68.6094 27.3906C67.9271 27.3906 67.3151 27.25 66.7734 26.9688C66.2318 26.6875 65.8073 26.2969 65.5 25.7969C65.1927 25.2917 65.0417 24.7188 65.0469 24.0781C65.0417 23.4375 65.1927 22.8646 65.5 22.3594C65.8073 21.8542 66.2318 21.4609 66.7734 21.1797C67.3151 20.8932 67.9271 20.75 68.6094 20.75ZM68.6094 22.1719C68.2396 22.1719 67.9089 22.25 67.6172 22.4062C67.3307 22.5625 67.1068 22.7865 66.9453 23.0781C66.7839 23.3646 66.7031 23.6979 66.7031 24.0781C66.7031 24.4583 66.7839 24.7917 66.9453 25.0781C67.1068 25.3594 67.3307 25.5781 67.6172 25.7344C67.9089 25.8854 68.2396 25.9583 68.6094 25.9531C68.9688 25.9583 69.2891 25.8854 69.5703 25.7344C69.8568 25.5781 70.0807 25.3594 70.2422 25.0781C70.4089 24.7917 70.4948 24.4583 70.5 24.0781C70.4948 23.6979 70.4089 23.3646 70.2422 23.0781C70.0807 22.7917 69.8568 22.5703 69.5703 22.4141C69.2891 22.2526 68.9688 22.1719 68.6094 22.1719ZM89.2231 20.7031H79.4731V16.4531H81.1763V19.3125H89.2231V20.7031ZM90.7075 23.1719H77.8013V21.7812H90.7075V23.1719ZM89.1294 27.7656H81.0981V28.8594H89.5981V30.2188H79.3481V26.5H87.4106V25.5H79.3325V24.1562H89.1294V27.7656ZM100.904 16.4062C101.977 16.4062 102.891 16.5 103.646 16.6875C104.406 16.875 104.987 17.151 105.388 17.5156C105.789 17.875 105.992 18.3125 105.997 18.8281C105.992 19.5417 105.622 20.1042 104.888 20.5156C104.154 20.9271 103.107 21.1693 101.747 21.2422V22.1406H107.357V23.5312H94.4819V22.1406H100.029V21.2422C98.6746 21.1641 97.6329 20.9193 96.9037 20.5078C96.1746 20.0964 95.81 19.5365 95.81 18.8281C95.81 18.3125 96.0105 17.875 96.4116 17.5156C96.8126 17.151 97.3933 16.875 98.1537 16.6875C98.9142 16.5 99.8308 16.4062 100.904 16.4062ZM100.904 17.7031C99.8256 17.7031 99.0079 17.7995 98.4506 17.9922C97.8985 18.1797 97.6277 18.4583 97.6381 18.8281C97.6329 19.2135 97.9011 19.5 98.4428 19.6875C98.9897 19.875 99.81 19.974 100.904 19.9844C102.008 19.974 102.833 19.875 103.38 19.6875C103.927 19.5 104.201 19.2135 104.201 18.8281C104.201 18.4583 103.922 18.1797 103.365 17.9922C102.813 17.7995 101.992 17.7031 100.904 17.7031ZM105.747 27.8906H97.7162V28.9375H106.138V30.2656H96.0131V26.6562H104.044V25.75H95.9975V24.4375H105.747V27.8906ZM119.658 30.4062H117.924V24.6094H115.346V23.1875H117.924V20.7656H115.393V19.3438H117.924V16.2656H119.658V30.4062ZM114.596 22.7656H110.064V25.7656C111.08 25.7552 112.007 25.724 112.846 25.6719C113.689 25.6146 114.559 25.5208 115.455 25.3906L115.596 26.8125C114.596 26.9688 113.632 27.0729 112.705 27.125C111.778 27.1771 110.689 27.2031 109.439 27.2031H108.346V21.4062H112.893V18.875H108.299V17.4844H114.596V22.7656ZM132.241 21.625H134.412V23.0469H132.241V30.4062H130.506V16.2656H132.241V21.625ZM128.366 19.0156H123.491V25.5C124.631 25.5 125.66 25.4661 126.577 25.3984C127.493 25.3307 128.423 25.2135 129.366 25.0469L129.569 26.5156C128.548 26.6927 127.537 26.8099 126.537 26.8672C125.543 26.9245 124.34 26.9531 122.928 26.9531H121.756V17.6094H128.366V19.0156ZM147.433 28.6875H134.526V27.2656H140.089V24.5156H135.948V17.2031H137.683V19.5156H144.229V17.2031H145.964V24.5156H141.808V27.2656H147.433V28.6875ZM144.229 23.1094V20.9062H137.683V23.1094H144.229ZM159.671 30.3906H157.921V16.2656H159.671V30.3906ZM155.452 17.7656C155.452 20.0104 154.945 21.9818 153.929 23.6797C152.913 25.3724 151.229 26.776 148.874 27.8906L147.968 26.5C149.786 25.6354 151.153 24.6016 152.07 23.3984C152.992 22.1901 153.531 20.7708 153.687 19.1406H148.687V17.7656H155.452Z" fill="#222222"></path>
<path d="M64.9297 49L64.916 48.0977L68.293 44.543C69.4688 43.2988 70.0293 42.6289 70.0293 41.7129C70.0293 40.7012 69.168 40.0312 68.0605 40.0312C66.8848 40.0312 66.1328 40.7832 66.1328 41.8906H64.9707C64.957 40.1406 66.3105 38.9648 68.1016 38.9648C69.8926 38.9648 71.1777 40.168 71.1777 41.7129C71.1777 42.8203 70.6582 43.6816 68.9082 45.4863L66.6387 47.8242V47.9062H71.3555V49H64.9297ZM75.9667 49.1367C73.7655 49.1367 72.5077 47.291 72.5077 44.0508C72.5077 40.8379 73.7929 38.9648 75.9667 38.9648C78.1405 38.9648 79.4257 40.8379 79.4257 44.0508C79.4257 47.291 78.1542 49.1367 75.9667 49.1367ZM75.9667 48.043C77.3886 48.043 78.2226 46.6074 78.2226 44.0508C78.2226 41.4941 77.3886 40.0312 75.9667 40.0312C74.5448 40.0312 73.6972 41.4941 73.6972 44.0508C73.6972 46.6074 74.5312 48.043 75.9667 48.043ZM91.3377 47.6738V48.5762H80.2088V47.6738H85.2264V44.8848H86.2791V47.6738H91.3377ZM90.2713 39.8945V40.7832H86.3065C86.3133 42.6904 88.3368 44.0918 90.6678 44.4746L90.2577 45.3223C88.3094 44.9736 86.5252 43.9961 85.7596 42.4785C84.9871 43.9961 83.203 44.9736 81.2479 45.3223L80.8241 44.4746C83.1688 44.0918 85.2059 42.6904 85.2127 40.7832H81.2479V39.8945H85.2264V38.2129H86.2791V39.8945H90.2713ZM101.39 37.9531V41.6582H103.222V42.5605H101.39V46.8535H100.31V37.9531H101.39ZM98.1091 38.8965C98.1091 42.0273 95.867 44.3516 92.367 45.4453L91.9021 44.584C94.8142 43.6748 96.7146 41.9385 96.947 39.7988H92.408V38.8965H98.1091ZM101.951 48.9453V49.8477H93.7752V45.9512H94.8416V48.9453H101.951ZM111.037 40.5645C111.037 42.2051 112.336 43.6816 114.154 44.2559L113.607 45.1172C112.192 44.6387 111.064 43.6406 110.517 42.3555C109.984 43.7432 108.842 44.8369 107.4 45.3633L106.839 44.502C108.658 43.8594 109.957 42.2871 109.957 40.5645V39.8535H107.113V38.9785H113.839V39.8535H111.037V40.5645ZM116.697 37.9668V46.8809H115.63V37.9668H116.697ZM117.08 48.9453V49.8477H108.849V46.0332H109.916V48.9453H117.08ZM128.664 37.9531V45.6504H127.638V42.1641H126.011V45.2129H125V38.1992H126.011V41.2754H127.638V37.9531H128.664ZM124.507 39.416V40.2773H118.273V39.416H120.871V38.0488H121.937V39.416H124.507ZM121.404 40.9336C122.949 40.9336 124.001 41.7402 124.015 43.0117C124.001 44.2559 122.949 45.0762 121.404 45.0762C119.873 45.0762 118.792 44.2559 118.806 43.0117C118.792 41.7402 119.873 40.9336 121.404 40.9336ZM121.404 41.7266C120.433 41.7266 119.763 42.2461 119.763 43.0117C119.763 43.7637 120.433 44.2695 121.404 44.2695C122.375 44.2695 123.044 43.7637 123.044 43.0117C123.044 42.2461 122.375 41.7266 121.404 41.7266ZM124.644 45.8555C127.201 45.8555 128.732 46.6211 128.732 47.9883C128.732 49.3145 127.201 50.0801 124.644 50.0801C122.087 50.0801 120.556 49.3145 120.57 47.9883C120.556 46.6211 122.087 45.8555 124.644 45.8555ZM124.644 46.7031C122.757 46.6895 121.623 47.1543 121.636 47.9883C121.623 48.7812 122.757 49.2461 124.644 49.2461C126.531 49.2461 127.652 48.7812 127.666 47.9883C127.652 47.1543 126.531 46.6895 124.644 46.7031Z" fill="#A8B2AB"></path>
<path d="M297 39L301 33L297 27" stroke="#A8B2AB" stroke-width="2" stroke-linecap="round"></path>
<defs>
<linearGradient id="paint0_linear_7_382" x1="16" y1="17" x2="48" y2="49" gradientUnits="userSpaceOnUse">
<stop stop-color="#FFEBA2"></stop>
<stop offset="1" stop-color="#FFDD63"></stop>
</linearGradient>
</defs>
</svg>