<svg width="48" height="48" viewBox="0 0 48 48" fill="none" xmlns="http://www.w3.org/2000/svg">
<rect width="48" height="48" rx="24" fill="#DDF6FF"></rect>
<g clip-path="url(#clip0_7_799)">
<path d="M13.7143 17.5C13.7143 14.7152 14.798 12.0445 16.7269 10.0754C18.6558 8.10625 21.2721 7 24 7C26.7279 7 29.3442 8.10625 31.2731 10.0754C33.202 12.0445 34.2857 14.7152 34.2857 17.5C34.2857 20.2848 33.202 22.9555 31.2731 24.9246C29.3442 26.8938 26.7279 28 24 28C21.2721 28 18.6558 26.8938 16.7269 24.9246C14.798 22.9555 13.7143 20.2848 13.7143 17.5ZM6 46.5637C6 38.4836 12.4125 31.9375 20.3277 31.9375H27.6723C35.5875 31.9375 42 38.4836 42 46.5637C42 47.909 40.9312 49 39.6134 49H8.38661C7.06875 49 6 47.909 6 46.5637Z" fill="#56D2FF"></path>
</g>
<defs>
<clipPath id="clip0_7_799">
<rect width="48" height="48" rx="24" fill="white"></rect>
</clipPath>
</defs>
</svg>