<svg width="111" height="44" viewBox="0 0 111 44" fill="none" xmlns="http://www.w3.org/2000/svg">
<rect width="111" height="44" rx="8" fill="#EEF0EE"></rect>
<path d="M24 16C23.5852 16 23.25 16.3352 23.25 16.75V17.2C21.5391 17.5469 20.25 19.0609 20.25 20.875V21.3156C20.25 22.4172 19.8446 23.4812 19.1133 24.3062L18.9399 24.5008C18.743 24.7211 18.6961 25.0375 18.8157 25.307C18.9352 25.5766 19.2047 25.75 19.5 25.75H28.5C28.7954 25.75 29.0625 25.5766 29.1844 25.307C29.3063 25.0375 29.2571 24.7211 29.0602 24.5008L28.8868 24.3062C28.1555 23.4812 27.75 22.4195 27.75 21.3156V20.875C27.75 19.0609 26.461 17.5469 24.75 17.2V16.75C24.75 16.3352 24.4149 16 24 16ZM25.0618 27.5617C25.343 27.2805 25.5 26.8984 25.5 26.5H24H22.5C22.5 26.8984 22.6571 27.2805 22.9383 27.5617C23.2196 27.843 23.6016 28 24 28C24.3985 28 24.7805 27.843 25.0618 27.5617Z" fill="#A8B2AB"></path>
<path d="M46.1582 15.8574V18.3457H47.8809V19.6035H46.1582V22.0645H44.6406V15.8574H46.1582ZM46.1582 22.5977V25.8379H39.5957V26.8633H46.541V28.0664H38.0918V24.7305H44.6406V23.7734H38.0781V22.5977H46.1582ZM39.8281 16.2676C41.7148 16.2676 43.0957 17.4023 43.1094 19.043C43.0957 20.6562 41.7148 21.8047 39.8281 21.8047C37.9414 21.8047 36.5332 20.6562 36.5469 19.043C36.5332 17.4023 37.9414 16.2676 39.8281 16.2676ZM39.8281 17.498C38.7891 17.498 38.0234 18.0996 38.0371 19.043C38.0234 19.9727 38.7891 20.6016 39.8281 20.6016C40.8672 20.6016 41.6328 19.9727 41.6328 19.043C41.6328 18.0996 40.8672 17.498 39.8281 17.498ZM58.3847 15.8711V23.1992H56.8534V15.8711H58.3847ZM54.4198 16.5957V20.1777H50.2362V21.4629C52.3554 21.4561 53.8525 21.4014 55.623 21.1074L55.8144 22.3379C53.8593 22.6523 52.1913 22.707 49.7987 22.707H48.746V19.0156H52.9159V17.7988H48.7187V16.5957H54.4198ZM58.3847 23.7734V28.0664H50.1816V23.7734H58.3847ZM51.6855 24.9902V26.8359H56.8945V24.9902H51.6855ZM71.0623 25.4824V26.7266H59.7694V25.4824H64.6366V23.0762H61.0135V16.6777H62.5311V18.7012H68.2596V16.6777H69.7772V23.0762H66.1405V25.4824H71.0623ZM62.5311 21.8457H68.2596V19.918H62.5311V21.8457ZM82.0584 15.8574V28.2168H80.5955V21.9688H79.2283V27.5879H77.8064V16.0898H79.2283V20.7246H80.5955V15.8574H82.0584ZM73.5134 17.2793V23.8008C74.5798 23.7803 75.7488 23.6914 77.0408 23.4316L77.1912 24.7578C75.5232 25.0586 74.115 25.1406 72.8025 25.1406H71.9822V17.2793H73.5134ZM93.4509 15.8574V28.2168H91.9196V15.8574H93.4509ZM89.7595 17.1699C89.7595 20.8477 88.3376 23.9785 84.0036 26.0293L83.2106 24.8125C86.444 23.2744 87.9479 21.1826 88.2145 18.373H83.8395V17.1699H89.7595Z" fill="#A8B2AB"></path>
</svg>