<svg width="24" height="24" viewBox="0 0 24 24" fill="none" xmlns="http://www.w3.org/2000/svg">
<path d="M20.4341 8.85703C20.5466 9.16289 20.4517 9.50391 20.2091 9.72187L18.6869 11.107C18.7255 11.3988 18.7466 11.6977 18.7466 12C18.7466 12.3023 18.7255 12.6012 18.6869 12.893L20.2091 14.2781C20.4517 14.4961 20.5466 14.8371 20.4341 15.143C20.2795 15.5613 20.0931 15.9621 19.8787 16.3488L19.7134 16.6336C19.4814 17.0203 19.2212 17.3859 18.9365 17.7305C18.7291 17.9836 18.3845 18.068 18.0752 17.9695L16.117 17.3473C15.6459 17.7094 15.1255 18.0117 14.5701 18.2402L14.1306 20.2477C14.0603 20.5676 13.8142 20.8207 13.4908 20.8734C13.0056 20.9543 12.5064 20.9965 11.9966 20.9965C11.4869 20.9965 10.9877 20.9543 10.5025 20.8734C10.1791 20.8207 9.93297 20.5676 9.86266 20.2477L9.4232 18.2402C8.86773 18.0117 8.34742 17.7094 7.87633 17.3473L5.92164 17.973C5.61226 18.0715 5.26773 17.9836 5.06031 17.734C4.77555 17.3895 4.51539 17.0238 4.28336 16.6371L4.11812 16.3523C3.90367 15.9656 3.71734 15.5648 3.56266 15.1465C3.45016 14.8406 3.54508 14.4996 3.78766 14.2816L5.30992 12.8965C5.27125 12.6012 5.25016 12.3023 5.25016 12C5.25016 11.6977 5.27125 11.3988 5.30992 11.107L3.78766 9.72187C3.54508 9.50391 3.45016 9.16289 3.56266 8.85703C3.71734 8.43867 3.90367 8.03789 4.11812 7.65117L4.28336 7.36641C4.51539 6.97969 4.77555 6.61406 5.06031 6.26953C5.26773 6.01641 5.61226 5.93203 5.92164 6.03047L7.87984 6.65273C8.35094 6.29063 8.87125 5.98828 9.42672 5.75977L9.86617 3.75234C9.93648 3.43242 10.1826 3.1793 10.506 3.12656C10.9912 3.04219 11.4904 3 12.0002 3C12.5099 3 13.0091 3.04219 13.4943 3.12305C13.8177 3.17578 14.0638 3.42891 14.1341 3.74883L14.5736 5.75625C15.1291 5.98477 15.6494 6.28711 16.1205 6.64922L18.0787 6.02695C18.388 5.92852 18.7326 6.01641 18.94 6.26602C19.2248 6.61055 19.4849 6.97617 19.717 7.36289L19.8822 7.64766C20.0966 8.03437 20.283 8.43516 20.4377 8.85352L20.4341 8.85703ZM12.0002 14.8125C12.7461 14.8125 13.4614 14.5162 13.9889 13.9887C14.5163 13.4613 14.8127 12.7459 14.8127 12C14.8127 11.2541 14.5163 10.5387 13.9889 10.0113C13.4614 9.48382 12.7461 9.1875 12.0002 9.1875C11.2542 9.1875 10.5389 9.48382 10.0114 10.0113C9.48397 10.5387 9.18766 11.2541 9.18766 12C9.18766 12.7459 9.48397 13.4613 10.0114 13.9887C10.5389 14.5162 11.2542 14.8125 12.0002 14.8125Z" fill="#A8B2AB"></path>
</svg>