<svg width="24" height="24" viewBox="0 0 24 24" fill="none" xmlns="http://www.w3.org/2000/svg">
<path d="M12.0002 4.6875C12.0002 4.23995 12.178 3.81072 12.4945 3.49426C12.8109 3.17779 13.2401 3 13.6877 3C14.1352 3 14.5645 3.17779 14.8809 3.49426C15.1974 3.81072 15.3752 4.23995 15.3752 4.6875C15.3752 5.13505 15.1974 5.56428 14.8809 5.88074C14.5645 6.19721 14.1352 6.375 13.6877 6.375C13.2401 6.375 12.8109 6.19721 12.4945 5.88074C12.178 5.56428 12.0002 5.13505 12.0002 4.6875ZM10.8225 10.0066C10.7873 10.0207 10.7557 10.0348 10.7205 10.0488L10.4393 10.1719C9.8627 10.4285 9.41973 10.9172 9.21934 11.5148L9.12793 11.7891C8.93105 12.3797 8.29473 12.6961 7.7041 12.4992C7.11348 12.3023 6.79707 11.666 6.99395 11.0754L7.08535 10.8012C7.48613 9.60234 8.37207 8.625 9.5252 8.11172L9.80645 7.98867C10.5377 7.66523 11.3287 7.49648 12.1303 7.49648C13.6982 7.49648 15.1115 8.43867 15.7127 9.88359L16.2541 11.1809L17.0064 11.557C17.5619 11.8348 17.7869 12.5098 17.5092 13.0652C17.2314 13.6207 16.5564 13.8457 16.001 13.568L15.0588 13.1004C14.6967 12.9176 14.4119 12.6152 14.2572 12.2391L13.9197 11.4305L13.2412 13.7332L14.9814 15.6316C15.1713 15.8391 15.3049 16.0887 15.3752 16.3629L16.1838 19.6008C16.335 20.202 15.9693 20.8137 15.3646 20.9648C14.76 21.116 14.1518 20.7504 14.0006 20.1457L13.2271 17.0484L10.7416 14.3379C10.2213 13.7719 10.0279 12.9809 10.2248 12.2391L10.8189 10.0066H10.8225ZM8.79043 16.9922L9.66934 14.7984C9.74316 14.9039 9.82754 15.0023 9.91543 15.1008L11.3463 16.6617L10.8365 17.9344C10.7521 18.1453 10.6256 18.3387 10.4639 18.5004L8.29473 20.6695C7.85527 21.109 7.1416 21.109 6.70215 20.6695C6.2627 20.2301 6.2627 19.5164 6.70215 19.077L8.79043 16.9922Z" fill="#56D2FF"></path>
</svg>