<svg width="24" height="24" viewBox="0 0 24 24" fill="none" xmlns="http://www.w3.org/2000/svg">
<path d="M4.60498 7.93726C4.60498 6.74378 5.07909 5.59919 5.923 4.75528C6.76691 3.91136 7.91151 3.43726 9.10498 3.43726C10.2985 3.43726 11.443 3.91136 12.287 4.75528C13.1309 5.59919 13.605 6.74378 13.605 7.93726C13.605 9.13073 13.1309 10.2753 12.287 11.1192C11.443 11.9632 10.2985 12.4373 9.10498 12.4373C7.91151 12.4373 6.76691 11.9632 5.923 11.1192C5.07909 10.2753 4.60498 9.13073 4.60498 7.93726ZM1.22998 20.3931C1.22998 16.9302 4.03545 14.1248 7.49834 14.1248H10.7116C14.1745 14.1248 16.98 16.9302 16.98 20.3931C16.98 20.9697 16.5124 21.4373 15.9358 21.4373H2.27412C1.69756 21.4373 1.22998 20.9697 1.22998 20.3931ZM22.6507 21.4373H17.8026C17.9925 21.1068 18.105 20.7236 18.105 20.3123V20.031C18.105 17.897 17.1522 15.981 15.6511 14.6943C15.7354 14.6908 15.8163 14.6873 15.9007 14.6873H18.0593C21.1917 14.6873 23.73 17.2255 23.73 20.358C23.73 20.9556 23.2448 21.4373 22.6507 21.4373ZM16.4175 12.4373C15.3276 12.4373 14.3433 11.9943 13.6296 11.2806C14.3222 10.3455 14.73 9.18882 14.73 7.93726C14.73 6.99507 14.4979 6.10562 14.0866 5.32515C14.7405 4.84702 15.5456 4.56226 16.4175 4.56226C18.5937 4.56226 20.355 6.32358 20.355 8.49976C20.355 10.6759 18.5937 12.4373 16.4175 12.4373Z" fill="#A8B2AB"></path>
</svg>