<svg width="24" height="24" viewBox="0 0 24 24" fill="none" xmlns="http://www.w3.org/2000/svg">
<path d="M5.25 5.25C5.25 4.62773 4.74727 4.125 4.125 4.125C3.50273 4.125 3 4.62773 3 5.25V17.0625C3 18.6164 4.25859 19.875 5.8125 19.875H19.875C20.4973 19.875 21 19.3723 21 18.75C21 18.1277 20.4973 17.625 19.875 17.625H5.8125C5.50312 17.625 5.25 17.3719 5.25 17.0625V5.25ZM19.5445 8.29453C19.984 7.85508 19.984 7.14141 19.5445 6.70195C19.1051 6.2625 18.3914 6.2625 17.952 6.70195L14.25 10.4074L12.232 8.38945C11.7926 7.95 11.0789 7.95 10.6395 8.38945L6.70195 12.327C6.2625 12.7664 6.2625 13.4801 6.70195 13.9195C7.14141 14.359 7.85508 14.359 8.29453 13.9195L11.4375 10.7801L13.4555 12.798C13.8949 13.2375 14.6086 13.2375 15.048 12.798L19.548 8.29805L19.5445 8.29453Z" fill="#A8B2AB"></path>
</svg>