<svg width="24" height="24" viewBox="0 0 24 24" fill="none" xmlns="http://www.w3.org/2000/svg">
<path d="M22.118 11.9824C22.118 12.6152 21.5906 13.1109 20.993 13.1109H19.868L19.8926 18.743C19.8926 18.8379 19.8855 18.9328 19.875 19.0277V19.5938C19.875 20.3707 19.2457 21 18.4688 21H17.9062C17.8676 21 17.8289 21 17.7902 20.9965C17.741 21 17.6918 21 17.6426 21H16.5H15.6562C14.8793 21 14.25 20.3707 14.25 19.5938V18.75V16.5C14.25 15.8777 13.7473 15.375 13.125 15.375H10.875C10.2527 15.375 9.75 15.8777 9.75 16.5V18.75V19.5938C9.75 20.3707 9.1207 21 8.34375 21H7.5H6.37852C6.32578 21 6.27305 20.9965 6.22031 20.993C6.17812 20.9965 6.13594 21 6.09375 21H5.53125C4.7543 21 4.125 20.3707 4.125 19.5938V15.6562C4.125 15.6246 4.125 15.5895 4.12852 15.5578V13.1109H3C2.36719 13.1109 1.875 12.6188 1.875 11.9824C1.875 11.666 1.98047 11.3848 2.22656 11.1387L11.2406 3.28125C11.4867 3.03516 11.768 3 12.0141 3C12.2602 3 12.5414 3.07031 12.7523 3.24609L21.7312 11.1387C22.0125 11.3848 22.1531 11.666 22.118 11.9824Z" fill="#A8B2AB"></path>
</svg>