<svg width="359" height="104" viewBox="0 0 359 104" fill="none" xmlns="http://www.w3.org/2000/svg">
<g filter="url(#filter0_d_7_326)">
<rect x="16" y="16" width="327" height="72" rx="12" fill="white" shape-rendering="crispEdges"></rect>
<path d="M33.0469 33.6875H35.0781V43.2812H40.0781V45H33.0469V33.6875ZM44.6137 45H42.4262L39.395 36.5156H41.52L43.4731 42.8281H43.5669L45.5356 36.5156H47.645L44.6137 45ZM49.1181 45.125C48.8994 45.125 48.6962 45.0703 48.5087 44.9609C48.3212 44.8516 48.1728 44.7031 48.0634 44.5156C47.9541 44.3281 47.8994 44.125 47.8994 43.9062C47.8994 43.6927 47.9541 43.4948 48.0634 43.3125C48.1728 43.125 48.3212 42.9766 48.5087 42.8672C48.6962 42.7578 48.8994 42.7031 49.1181 42.7031C49.3265 42.7031 49.5218 42.7578 49.7041 42.8672C49.8916 42.9766 50.04 43.125 50.1494 43.3125C50.264 43.4948 50.3212 43.6927 50.3212 43.9062C50.3212 44.125 50.264 44.3281 50.1494 44.5156C50.04 44.7031 49.8916 44.8516 49.7041 44.9609C49.5218 45.0703 49.3265 45.125 49.1181 45.125ZM55.4819 45.1562C54.685 45.1562 53.9715 45.0208 53.3412 44.75C52.711 44.4792 52.2162 44.1016 51.8569 43.6172C51.4975 43.1276 51.31 42.5677 51.2944 41.9375H53.3412C53.3621 42.2344 53.4662 42.4974 53.6537 42.7266C53.8465 42.9505 54.1017 43.125 54.4194 43.25C54.7371 43.375 55.0912 43.4375 55.4819 43.4375C55.8933 43.4375 56.2605 43.3672 56.5834 43.2266C56.9116 43.0807 57.1668 42.8802 57.3491 42.625C57.5314 42.3698 57.6225 42.0781 57.6225 41.75C57.6225 41.4115 57.5287 41.1094 57.3412 40.8438C57.1537 40.5781 56.8829 40.3724 56.5287 40.2266C56.1746 40.0755 55.7579 40 55.2787 40H54.2631V38.4375H55.2787C55.6746 38.4375 56.0261 38.3698 56.3334 38.2344C56.6459 38.0938 56.8881 37.8984 57.06 37.6484C57.2319 37.3932 57.3152 37.1042 57.31 36.7812C57.3152 36.4688 57.2423 36.1927 57.0912 35.9531C56.9454 35.7083 56.7345 35.5208 56.4584 35.3906C56.1824 35.2552 55.8621 35.1875 55.4975 35.1875C55.1433 35.1875 54.8126 35.2526 54.5053 35.3828C54.2032 35.5078 53.9584 35.6875 53.7709 35.9219C53.5886 36.1562 53.4923 36.4271 53.4819 36.7344H51.5287C51.5444 36.1094 51.7267 35.5547 52.0756 35.0703C52.4298 34.5859 52.9064 34.2083 53.5053 33.9375C54.1095 33.6667 54.7787 33.5312 55.5131 33.5312C56.2579 33.5312 56.9168 33.6719 57.4897 33.9531C58.0626 34.2292 58.5053 34.6068 58.8178 35.0859C59.1303 35.5651 59.284 36.0938 59.2787 36.6719C59.284 37.0885 59.2006 37.4661 59.0287 37.8047C58.8569 38.1432 58.6147 38.4245 58.3022 38.6484C57.9897 38.8724 57.6277 39.026 57.2162 39.1094V39.2031C57.7423 39.276 58.1928 39.4323 58.5678 39.6719C58.9428 39.9062 59.2267 40.2109 59.4194 40.5859C59.6121 40.9609 59.7058 41.3854 59.7006 41.8594C59.7058 42.4844 59.5261 43.0495 59.1616 43.5547C58.8022 44.0547 58.2996 44.4479 57.6537 44.7344C57.0131 45.0156 56.2892 45.1562 55.4819 45.1562ZM75.6781 46.3906H73.9438V39.2031H70.9594V37.7812H73.9438V32.2656H75.6781V46.3906ZM71.0219 33.7656C71.0167 35.2344 70.8135 36.5755 70.4125 37.7891C70.0167 39.0026 69.35 40.1224 68.4125 41.1484C67.4802 42.1693 66.2302 43.0677 64.6625 43.8438L63.7563 42.4844C65.5427 41.6094 66.8708 40.5729 67.7406 39.375C68.6104 38.1771 69.1208 36.7656 69.2719 35.1406H64.4125V33.7656H71.0219ZM90.0731 40.4375H84.4794V41.7969H88.495V46.3906H86.7606V43.2031H78.62V41.7969H82.7606V40.4375H77.1981V39.0625H90.0731V40.4375ZM80.5887 34.0156H86.6825V32.6094H88.4012V38.0156H78.87V32.6094H80.5887V34.0156ZM86.6825 36.625V35.3125H80.5887V36.625H86.6825ZM102.296 46.4062H100.546V32.2656H102.296V46.4062ZM94.6869 33.2969C95.3952 33.2969 96.0254 33.5026 96.5775 33.9141C97.1348 34.3203 97.5723 34.901 97.89 35.6562C98.2077 36.4062 98.3692 37.2812 98.3744 38.2812C98.3692 39.2865 98.2077 40.1667 97.89 40.9219C97.5775 41.6771 97.1426 42.2604 96.5853 42.6719C96.028 43.0781 95.3952 43.2812 94.6869 43.2812C93.9733 43.2812 93.3379 43.0781 92.7806 42.6719C92.2233 42.2604 91.7858 41.6771 91.4681 40.9219C91.1556 40.1667 90.9994 39.2865 90.9994 38.2812C90.9994 37.2812 91.1556 36.4062 91.4681 35.6562C91.7858 34.901 92.2233 34.3203 92.7806 33.9141C93.3379 33.5026 93.9733 33.2969 94.6869 33.2969ZM94.6869 34.8594C94.2858 34.8594 93.9317 34.9948 93.6244 35.2656C93.3223 35.5365 93.0879 35.9297 92.9212 36.4453C92.7546 36.9609 92.6712 37.5729 92.6712 38.2812C92.6712 38.9948 92.7546 39.6094 92.9212 40.125C93.0879 40.6406 93.3223 41.0365 93.6244 41.3125C93.9317 41.5833 94.2858 41.7188 94.6869 41.7188C95.0827 41.7188 95.4317 41.5833 95.7337 41.3125C96.0358 41.0365 96.2702 40.6406 96.4369 40.125C96.6035 39.6094 96.6869 38.9948 96.6869 38.2812C96.6869 37.5729 96.6035 36.9635 96.4369 36.4531C96.2702 35.9375 96.0358 35.5443 95.7337 35.2734C95.4317 34.9974 95.0827 34.8594 94.6869 34.8594Z" fill="#56D2FF"></path>
<rect x="32" y="56" width="252" height="18" rx="9" fill="#EEF0EE"></rect>
<rect x="32" y="56" width="150" height="18" rx="9" fill="url(#paint0_linear_7_326)"></rect>
<circle cx="42" cy="65" r="5" fill="white" stroke="#BCEDFF" stroke-width="2"></circle>
<circle cx="100" cy="65" r="5" fill="white" stroke="#BCEDFF" stroke-width="2"></circle>
<circle cx="158" cy="65" r="5" fill="white" stroke="#BCEDFF" stroke-width="2"></circle>
<circle cx="216" cy="65" r="5" fill="white" stroke="#EEF0EE" stroke-width="2"></circle>
<circle cx="274" cy="65" r="5" fill="white" stroke="#EEF0EE" stroke-width="2"></circle>
<path d="M297.203 71.1562C296.401 71.1562 295.667 70.9818 295 70.6328C294.333 70.2786 293.792 69.6927 293.375 68.875C292.964 68.0521 292.76 66.9792 292.766 65.6562C292.766 64.3802 292.951 63.2839 293.32 62.3672C293.69 61.4453 294.214 60.7422 294.891 60.2578C295.573 59.7734 296.375 59.5312 297.297 59.5312C298.01 59.5312 298.648 59.6693 299.211 59.9453C299.779 60.2214 300.237 60.6042 300.586 61.0938C300.935 61.5781 301.151 62.125 301.234 62.7344H299.219C299.115 62.2969 298.893 61.9479 298.555 61.6875C298.221 61.4271 297.802 61.2969 297.297 61.2969C296.755 61.2969 296.292 61.4505 295.906 61.7578C295.526 62.0651 295.234 62.5052 295.031 63.0781C294.833 63.651 294.734 64.3333 294.734 65.125H294.844C295.13 64.6406 295.531 64.263 296.047 63.9922C296.562 63.7161 297.13 63.5781 297.75 63.5781C298.422 63.5781 299.031 63.737 299.578 64.0547C300.125 64.3672 300.555 64.8021 300.867 65.3594C301.185 65.9167 301.344 66.5469 301.344 67.25C301.344 67.9896 301.169 68.6562 300.82 69.25C300.477 69.8438 299.99 70.3099 299.359 70.6484C298.734 70.987 298.016 71.1562 297.203 71.1562ZM297.172 69.5156C297.583 69.5156 297.956 69.4167 298.289 69.2188C298.628 69.0208 298.893 68.7526 299.086 68.4141C299.279 68.0755 299.375 67.7031 299.375 67.2969C299.375 66.901 299.281 66.5365 299.094 66.2031C298.906 65.8698 298.646 65.6068 298.312 65.4141C297.979 65.2214 297.609 65.125 297.203 65.125C296.792 65.125 296.414 65.224 296.07 65.4219C295.727 65.6198 295.456 65.888 295.258 66.2266C295.06 66.5599 294.958 66.9219 294.953 67.3125C294.958 67.7083 295.057 68.0755 295.25 68.4141C295.443 68.7474 295.706 69.0156 296.039 69.2188C296.378 69.4167 296.755 69.5156 297.172 69.5156ZM306.754 71.1562C305.848 71.1562 305.069 70.9297 304.418 70.4766C303.773 70.0182 303.275 69.3542 302.926 68.4844C302.583 67.6146 302.411 66.5677 302.411 65.3438C302.411 64.125 302.583 63.0807 302.926 62.2109C303.275 61.3359 303.775 60.6719 304.426 60.2188C305.077 59.7604 305.853 59.5312 306.754 59.5312C307.65 59.5312 308.424 59.7604 309.075 60.2188C309.731 60.6719 310.231 61.3359 310.575 62.2109C310.924 63.0807 311.098 64.125 311.098 65.3438C311.098 66.5677 310.924 67.6146 310.575 68.4844C310.231 69.3542 309.734 70.0182 309.083 70.4766C308.437 70.9297 307.661 71.1562 306.754 71.1562ZM306.754 69.4531C307.234 69.4531 307.642 69.2995 307.981 68.9922C308.325 68.6797 308.588 68.2188 308.77 67.6094C308.958 66.9948 309.051 66.2396 309.051 65.3438C309.051 64.4583 308.958 63.7083 308.77 63.0938C308.588 62.474 308.325 62.0078 307.981 61.6953C307.637 61.3776 307.228 61.2188 306.754 61.2188C306.28 61.2188 305.872 61.3776 305.528 61.6953C305.184 62.0078 304.918 62.474 304.731 63.0938C304.549 63.7083 304.458 64.4583 304.458 65.3438C304.458 66.2396 304.549 66.9948 304.731 67.6094C304.918 68.2188 305.181 68.6797 305.52 68.9922C305.864 69.2995 306.275 69.4531 306.754 69.4531ZM315.103 65.2031C314.576 65.2031 314.126 65.0833 313.751 64.8438C313.381 64.599 313.1 64.2578 312.907 63.8203C312.714 63.3776 312.618 62.8646 312.618 62.2812C312.618 61.7083 312.714 61.2031 312.907 60.7656C313.105 60.3229 313.392 59.9818 313.767 59.7422C314.142 59.4974 314.587 59.375 315.103 59.375C315.639 59.375 316.095 59.4974 316.47 59.7422C316.845 59.9818 317.126 60.3203 317.313 60.7578C317.506 61.1953 317.603 61.7031 317.603 62.2812C317.603 62.8646 317.504 63.3776 317.306 63.8203C317.113 64.2578 316.829 64.599 316.454 64.8438C316.079 65.0833 315.629 65.2031 315.103 65.2031ZM315.103 63.9531C315.446 63.9531 315.707 63.8047 315.884 63.5078C316.061 63.2109 316.149 62.8021 316.149 62.2812C316.149 61.7656 316.063 61.3594 315.892 61.0625C315.72 60.7656 315.457 60.6198 315.103 60.625C314.764 60.625 314.504 60.776 314.321 61.0781C314.144 61.375 314.056 61.776 314.056 62.2812C314.056 62.7969 314.144 63.2057 314.321 63.5078C314.504 63.8047 314.764 63.9531 315.103 63.9531ZM322.493 71.2969C321.967 71.3021 321.517 71.1849 321.142 70.9453C320.772 70.7005 320.491 70.3594 320.298 69.9219C320.105 69.4792 320.009 68.9688 320.009 68.3906C320.009 67.8125 320.105 67.3047 320.298 66.8672C320.496 66.4245 320.782 66.0807 321.157 65.8359C321.532 65.5911 321.978 65.4688 322.493 65.4688C323.024 65.4688 323.478 65.5911 323.853 65.8359C324.228 66.0755 324.511 66.4167 324.704 66.8594C324.897 67.2969 324.993 67.8073 324.993 68.3906C324.993 68.974 324.894 69.4844 324.696 69.9219C324.504 70.3594 324.22 70.7005 323.845 70.9453C323.47 71.1849 323.019 71.3021 322.493 71.2969ZM322.493 70.0469C322.842 70.0469 323.103 69.901 323.274 69.6094C323.451 69.3125 323.54 68.9062 323.54 68.3906C323.54 67.8646 323.454 67.4531 323.282 67.1562C323.11 66.8594 322.847 66.7135 322.493 66.7188C322.16 66.7188 321.902 66.8724 321.72 67.1797C321.537 67.4818 321.446 67.8854 321.446 68.3906C321.446 68.901 321.535 69.3047 321.712 69.6016C321.894 69.8984 322.155 70.0469 322.493 70.0469ZM321.853 59.6875H323.431L315.649 71H314.071L321.853 59.6875Z" fill="#656B67"></path>
</g>
<defs>
<filter id="filter0_d_7_326" x="0" y="0" width="359" height="104" filterUnits="userSpaceOnUse" color-interpolation-filters="sRGB">
<feFlood flood-opacity="0" result="BackgroundImageFix"></feFlood>
<feColorMatrix in="SourceAlpha" type="matrix" values="0 0 0 0 0 0 0 0 0 0 0 0 0 0 0 0 0 0 127 0" result="hardAlpha"></feColorMatrix>
<feOffset></feOffset>
<feGaussianBlur stdDeviation="8"></feGaussianBlur>
<feComposite in2="hardAlpha" operator="out"></feComposite>
<feColorMatrix type="matrix" values="0 0 0 0 0 0 0 0 0 0 0 0 0 0 0 0 0 0 0.05 0"></feColorMatrix>
<feBlend mode="normal" in2="BackgroundImageFix" result="effect1_dropShadow_7_326"></feBlend>
<feBlend mode="normal" in="SourceGraphic" in2="effect1_dropShadow_7_326" result="shape"></feBlend>
</filter>
<linearGradient id="paint0_linear_7_326" x1="32" y1="65" x2="182" y2="65" gradientUnits="userSpaceOnUse">
<stop stop-color="#BCEDFF"></stop>
<stop offset="1" stop-color="#1AC2FF"></stop>
</linearGradient>
</defs>
</svg>