<svg width="202" height="202" viewBox="0 0 202 202" fill="none" xmlns="http://www.w3.org/2000/svg">
<g clip-path="url(#paint0_angular_22_713_clip_path)" data-figma-skip-parse="true"><g transform="matrix(-0.0064 -0.096 0.096 -0.0064 101 101)"></g></g><path d="M0 101C1.52445e-06 80.3955 6.17554 61.2183 16.7773 45.2363C18.3038 42.9352 21.4069 42.3065 23.708 43.833C26.0091 45.3595 26.6367 48.4626 25.1104 50.7637C15.5619 65.1576 10 82.4218 10 101C10 151.258 50.7421 192 101 192C151.258 192 192 151.258 192 101C192 50.7421 151.258 10 101 10C98.2386 10 96 7.76142 96 5C96 2.23858 98.2386 4.12324e-06 101 0C156.781 0 202 45.2192 202 101C202 156.781 156.781 202 101 202C45.2192 202 0 156.781 0 101Z" data-figma-gradient-fill="{&#34;type&#34;:&#34;GRADIENT_ANGULAR&#34;,&#34;stops&#34;:[{&#34;color&#34;:{&#34;r&#34;:0.60352313518524170,&#34;g&#34;:0.89427280426025391,&#34;b&#34;:1.0,&#34;a&#34;:1.0},&#34;position&#34;:0.0},{&#34;color&#34;:{&#34;r&#34;:0.0,&#34;g&#34;:0.73333340883255005,&#34;b&#34;:1.0,&#34;a&#34;:1.0},&#34;position&#34;:1.0}],&#34;stopsVar&#34;:[{&#34;color&#34;:{&#34;r&#34;:0.60352313518524170,&#34;g&#34;:0.89427280426025391,&#34;b&#34;:1.0,&#34;a&#34;:1.0},&#34;position&#34;:0.0},{&#34;color&#34;:{&#34;r&#34;:0.0,&#34;g&#34;:0.73333340883255005,&#34;b&#34;:1.0,&#34;a&#34;:1.0},&#34;position&#34;:1.0}],&#34;transform&#34;:{&#34;m00&#34;:-12.799995422363281,&#34;m01&#34;:192.00001525878906,&#34;m02&#34;:11.399989128112793,&#34;m10&#34;:-192.00001525878906,&#34;m11&#34;:-12.799995422363281,&#34;m12&#34;:203.40002441406250},&#34;opacity&#34;:1.0,&#34;blendMode&#34;:&#34;NORMAL&#34;,&#34;visible&#34;:true}"></path>
<defs>
<clipPath id="paint0_angular_22_713_clip_path"><path d="M0 101C1.52445e-06 80.3955 6.17554 61.2183 16.7773 45.2363C18.3038 42.9352 21.4069 42.3065 23.708 43.833C26.0091 45.3595 26.6367 48.4626 25.1104 50.7637C15.5619 65.1576 10 82.4218 10 101C10 151.258 50.7421 192 101 192C151.258 192 192 151.258 192 101C192 50.7421 151.258 10 101 10C98.2386 10 96 7.76142 96 5C96 2.23858 98.2386 4.12324e-06 101 0C156.781 0 202 45.2192 202 101C202 156.781 156.781 202 101 202C45.2192 202 0 156.781 0 101Z"></path></clipPath></defs>
</svg>