<svg width="375" height="326" viewBox="0 0 375 326" fill="none" xmlns="http://www.w3.org/2000/svg" xmlns:xlink="http://www.w3.org/1999/xlink">
<g clip-path="url(#clip0_7_316)">
<rect x="287" y="118.5" width="128" height="128" fill="url(#pattern0_7_316)"></rect>
<rect x="238" y="98.5" width="143" height="143" fill="url(#pattern1_7_316)"></rect>
<path d="M460 283.9C460 305.42 432.357 351.879 380 359.884C331.045 367.369 259.855 359.884 187 359.884C114.145 359.884 44.4548 367.369 -4.5 359.884C-56.8568 351.879 -86 305.42 -86 283.9C-86 242.258 36.2263 208.5 187 208.5C337.774 208.5 460 242.258 460 283.9Z" fill="url(#paint0_linear_7_316)"></path>
<g opacity="0.2" filter="url(#filter0_f_7_316)" style="mix-blend-mode:multiply">
<ellipse cx="187.5" cy="225" rx="43.5" ry="8.5" fill="#81796A"></ellipse>
</g>
<rect x="118" y="41.5" width="137" height="185" fill="url(#pattern2_7_316)"></rect>
<rect x="269" y="-13.5" width="130" height="130" fill="url(#pattern3_7_316)"></rect>
<rect x="-41" y="41.5" width="149" height="149" fill="url(#pattern4_7_316)"></rect>
</g>
<defs>
<pattern id="pattern0_7_316" patternContentUnits="objectBoundingBox" width="1" height="1">
<use xlink:href="#image0_7_316" transform="scale(0.000797448)"></use>
</pattern>
<pattern id="pattern1_7_316" patternContentUnits="objectBoundingBox" width="1" height="1">
<use xlink:href="#image0_7_316" transform="scale(0.000797448)"></use>
</pattern>
<filter id="filter0_f_7_316" x="137.6" y="210.1" width="99.8" height="29.8" filterUnits="userSpaceOnUse" color-interpolation-filters="sRGB">
<feFlood flood-opacity="0" result="BackgroundImageFix"></feFlood>
<feBlend mode="normal" in="SourceGraphic" in2="BackgroundImageFix" result="shape"></feBlend>
<feGaussianBlur stdDeviation="3.2" result="effect1_foregroundBlur_7_316"></feGaussianBlur>
</filter>
<pattern id="pattern2_7_316" patternContentUnits="objectBoundingBox" width="1" height="1">
<use xlink:href="#image1_7_316" transform="matrix(0.00127592 0 0 0.000948759 -0.3 -0.0717949)"></use>
</pattern>
<pattern id="pattern3_7_316" patternContentUnits="objectBoundingBox" width="1" height="1">
<use xlink:href="#image2_7_316" transform="scale(0.000797448)"></use>
</pattern>
<pattern id="pattern4_7_316" patternContentUnits="objectBoundingBox" width="1" height="1">
<use xlink:href="#image2_7_316" transform="scale(0.000797448)"></use>
</pattern>
<linearGradient id="paint0_linear_7_316" x1="189.5" y1="313.5" x2="187" y2="208.5" gradientUnits="userSpaceOnUse">
<stop stop-color="#F7F7F7"></stop>
<stop offset="1" stop-color="#B4D15C"></stop>
</linearGradient>
<clipPath id="clip0_7_316">
<rect width="375" height="326" fill="white"></rect>
</clipPath>
<image id="image0_7_316" width="1254" height="1254" preserveAspectRatio="none"></image>
<image id="image1_7_316" width="1254" height="1254" preserveAspectRatio="none"></image>
<image id="image2_7_316" width="1254" height="1254" preserveAspectRatio="none"></image>
</defs>
</svg>